M48
;DRILL file {KiCad 4.0.6} date 03/30/17 16:17:17
;FORMAT={-:-/ absolute / inch / decimal}
FMAT,2
INCH,TZ
T1C0.031
T2C0.039
T3C0.039
T4C0.040
%
G90
G05
M72
T1
X4.6922Y-1.9605
X4.9922Y-1.9605
X5.3397Y-1.9646
X5.6397Y-1.9646
X5.9781Y-1.9643
X6.2781Y-1.9643
T2
X4.4822Y-1.9605
X4.5822Y-1.9605
X5.1294Y-1.9646
X5.2294Y-1.9646
X5.7681Y-1.9643
X5.8681Y-1.9643
T3
X4.8894Y-3.1787
X5.1894Y-3.1787
X5.5144Y-3.2037
X5.5144Y-3.5037
T4
X4.6865Y-3.0253
X4.7865Y-3.0253
X4.7894Y-3.3287
X4.8865Y-3.0253
X4.8894Y-3.3287
X4.9865Y-3.0253
X4.9894Y-3.3287
X5.0865Y-3.0253
X5.0894Y-2.2287
X5.0894Y-3.3287
X5.1144Y-2.8287
X5.1865Y-3.0253
X5.1894Y-2.2287
X5.1894Y-3.3287
X5.2144Y-2.8287
X5.2865Y-3.0253
X5.2894Y-2.2287
X5.2894Y-3.3287
X5.3144Y-2.8287
X5.3865Y-3.0253
X5.3894Y-2.2287
X5.4865Y-3.0253
X5.4894Y-2.2287
X5.4894Y-2.8287
X5.5865Y-3.0253
X5.5894Y-2.2287
X5.6865Y-3.0253
X5.6894Y-2.2287
X5.7865Y-3.0253
X5.7894Y-2.2287
X5.8865Y-3.0253
X5.8894Y-2.2287
X5.9865Y-3.0253
X5.9894Y-2.2287
X6.0865Y-3.0253
X6.0894Y-2.2287
X6.1865Y-3.0253
X6.1894Y-2.2287
X6.5894Y-2.2287
X6.6894Y-2.2287
X6.7894Y-2.2287
X6.8894Y-2.2287
X6.9894Y-2.2287
X7.0894Y-2.2287
X7.1894Y-2.2287
X7.2894Y-2.2287
X7.3894Y-2.2287
T0
M30
