G04 #@! TF.FileFunction,Copper,L2,Bot,Signal*
%FSLAX46Y46*%
G04 Gerber Fmt 4.6, Leading zero omitted, Abs format (unit mm)*
G04 Created by KiCad (PCBNEW 4.0.6) date 03/31/17 11:08:47*
%MOMM*%
%LPD*%
G01*
G04 APERTURE LIST*
%ADD10C,0.100000*%
%ADD11R,1.727200X2.032000*%
%ADD12O,1.727200X2.032000*%
%ADD13C,1.998980*%
%ADD14R,2.235200X2.235200*%
%ADD15R,2.000000X2.000000*%
%ADD16O,2.000000X2.000000*%
%ADD17C,1.600000*%
%ADD18O,1.600000X1.600000*%
%ADD19C,0.800000*%
%ADD20C,0.400000*%
%ADD21C,0.254000*%
G04 APERTURE END LIST*
D10*
D11*
X187690000Y-56610000D03*
D12*
X185150000Y-56610000D03*
X182610000Y-56610000D03*
X180070000Y-56610000D03*
X177530000Y-56610000D03*
X174990000Y-56610000D03*
X172450000Y-56610000D03*
X169910000Y-56610000D03*
X167370000Y-56610000D03*
D11*
X134350000Y-84550000D03*
D12*
X131810000Y-84550000D03*
X129270000Y-84550000D03*
X126730000Y-84550000D03*
X124190000Y-84550000D03*
X121650000Y-84550000D03*
D13*
X140065000Y-81375000D03*
X140065000Y-88995000D03*
X124190000Y-80740000D03*
X131810000Y-80740000D03*
D11*
X129270000Y-56610000D03*
D12*
X131810000Y-56610000D03*
X134350000Y-56610000D03*
X136890000Y-56610000D03*
X139430000Y-56610000D03*
X141970000Y-56610000D03*
X144510000Y-56610000D03*
X147050000Y-56610000D03*
X149590000Y-56610000D03*
X152130000Y-56610000D03*
X154670000Y-56610000D03*
X157210000Y-56610000D03*
D11*
X157137562Y-76843356D03*
D12*
X154597562Y-76843356D03*
X152057562Y-76843356D03*
X149517562Y-76843356D03*
X146977562Y-76843356D03*
X144437562Y-76843356D03*
X141897562Y-76843356D03*
X139357562Y-76843356D03*
X136817562Y-76843356D03*
X134277562Y-76843356D03*
X131737562Y-76843356D03*
X129197562Y-76843356D03*
X126657562Y-76843356D03*
X124117562Y-76843356D03*
X121577562Y-76843356D03*
X119037562Y-76843356D03*
D14*
X139430000Y-71850000D03*
D11*
X129905000Y-71850000D03*
D12*
X132445000Y-71850000D03*
X134985000Y-71850000D03*
D15*
X113847424Y-49796796D03*
D16*
X116387424Y-49796796D03*
D15*
X130286000Y-49901514D03*
D16*
X132826000Y-49901514D03*
D15*
X146509694Y-49894164D03*
D16*
X149049694Y-49894164D03*
D17*
X126801424Y-49796796D03*
D18*
X119181424Y-49796796D03*
D17*
X143247638Y-49901514D03*
D18*
X135627638Y-49901514D03*
D17*
X159463694Y-49894164D03*
D18*
X151843694Y-49894164D03*
D19*
X172450000Y-80232000D02*
X172450000Y-56610000D01*
X163687000Y-88995000D02*
X172450000Y-80232000D01*
X140065000Y-88995000D02*
X163687000Y-88995000D01*
X132445000Y-71850000D02*
X134985000Y-71850000D01*
X132445000Y-71850000D02*
X132445000Y-73755000D01*
X132445000Y-73755000D02*
X131810000Y-74390000D01*
X131810000Y-74390000D02*
X127294918Y-74390000D01*
X127294918Y-74390000D02*
X126657562Y-75027356D01*
X126657562Y-75027356D02*
X126657562Y-76843356D01*
X131737562Y-76843356D02*
X131737562Y-80667562D01*
X131737562Y-80667562D02*
X131810000Y-80740000D01*
X131810000Y-80740000D02*
X139430000Y-80740000D01*
X139430000Y-80740000D02*
X140065000Y-81375000D01*
X174990000Y-56610000D02*
X174990000Y-54794000D01*
X164322000Y-55086000D02*
X164322000Y-64738000D01*
X164322000Y-64738000D02*
X154597562Y-74462438D01*
X174990000Y-54794000D02*
X174012000Y-53816000D01*
X174012000Y-53816000D02*
X165592000Y-53816000D01*
X165592000Y-53816000D02*
X164322000Y-55086000D01*
X154597562Y-74462438D02*
X154597562Y-76843356D01*
X162036000Y-54832000D02*
X162036000Y-54070000D01*
X162036000Y-54070000D02*
X164322000Y-51784000D01*
X164322000Y-51784000D02*
X174990000Y-51784000D01*
X174990000Y-51784000D02*
X177530000Y-54324000D01*
X177530000Y-54324000D02*
X177530000Y-56610000D01*
X162036000Y-64484000D02*
X162036000Y-54832000D01*
X152130000Y-74390000D02*
X162036000Y-64484000D01*
X152057562Y-76843356D02*
X152057562Y-75027356D01*
X152130000Y-74954918D02*
X152130000Y-74390000D01*
X152057562Y-75027356D02*
X152130000Y-74954918D01*
X163052000Y-49752000D02*
X182610000Y-49752000D01*
X187690000Y-56610000D02*
X187690000Y-54794000D01*
X187690000Y-54794000D02*
X182648000Y-49752000D01*
X182648000Y-49752000D02*
X182610000Y-49752000D01*
X159750000Y-53054000D02*
X163052000Y-49752000D01*
X159750000Y-58388000D02*
X159750000Y-53562000D01*
X159750000Y-53562000D02*
X159750000Y-53054000D01*
X157718000Y-60420000D02*
X159750000Y-58388000D01*
X147050000Y-60420000D02*
X157464000Y-60420000D01*
X157464000Y-60420000D02*
X157718000Y-60420000D01*
X128635000Y-67405000D02*
X129905000Y-67405000D01*
X129905000Y-67405000D02*
X140065000Y-67405000D01*
X129905000Y-71850000D02*
X129905000Y-67405000D01*
X140065000Y-67405000D02*
X147050000Y-60420000D01*
X121650000Y-74390000D02*
X128635000Y-67405000D01*
X121650000Y-74954918D02*
X121650000Y-74390000D01*
X121577562Y-76843356D02*
X121577562Y-75027356D01*
X121577562Y-75027356D02*
X121650000Y-74954918D01*
D20*
X139430000Y-71850000D02*
X139430000Y-76770918D01*
X139430000Y-76770918D02*
X139357562Y-76843356D01*
D19*
X134350000Y-84550000D02*
X134350000Y-87852000D01*
X134350000Y-87852000D02*
X129016000Y-93186000D01*
X118602000Y-93186000D02*
X115554000Y-90138000D01*
X129016000Y-93186000D02*
X118602000Y-93186000D01*
X115554000Y-90138000D02*
X115554000Y-70834000D01*
X115554000Y-70834000D02*
X124444000Y-61944000D01*
X124444000Y-61944000D02*
X132318000Y-61944000D01*
X132318000Y-61944000D02*
X134350000Y-59912000D01*
X134350000Y-59912000D02*
X134350000Y-56610000D01*
X124190000Y-84550000D02*
X124190000Y-80740000D01*
X116387424Y-49796796D02*
X119181424Y-49796796D01*
X132826000Y-49901514D02*
X135627638Y-49901514D01*
X149049694Y-49894164D02*
X151843694Y-49894164D01*
X139430000Y-56610000D02*
X139430000Y-54794000D01*
X139430000Y-54794000D02*
X138198000Y-53562000D01*
X138198000Y-53562000D02*
X128000000Y-53562000D01*
X128000000Y-53562000D02*
X126801424Y-52363424D01*
X126801424Y-52363424D02*
X126801424Y-49796796D01*
X141970000Y-56610000D02*
X141970000Y-51179152D01*
X141970000Y-51179152D02*
X143247638Y-49901514D01*
X145742000Y-53562000D02*
X154664488Y-53562000D01*
X144510000Y-56610000D02*
X144510000Y-54794000D01*
X144510000Y-54794000D02*
X145742000Y-53562000D01*
X159463694Y-49894164D02*
X158332324Y-49894164D01*
X158332324Y-49894164D02*
X154664488Y-53562000D01*
D21*
G36*
X195453000Y-101473000D02*
X111392000Y-101473000D01*
X111392000Y-70834000D01*
X114327000Y-70834000D01*
X114327000Y-90138000D01*
X114420400Y-90607553D01*
X114686380Y-91005620D01*
X117734380Y-94053620D01*
X118132447Y-94319600D01*
X118602000Y-94413000D01*
X129016000Y-94413000D01*
X129485553Y-94319600D01*
X129883620Y-94053620D01*
X133790077Y-90147163D01*
X139092443Y-90147163D01*
X139191042Y-90413965D01*
X139800582Y-90640401D01*
X140450377Y-90616341D01*
X140938958Y-90413965D01*
X141037557Y-90147163D01*
X140065000Y-89174605D01*
X139092443Y-90147163D01*
X133790077Y-90147163D01*
X135206658Y-88730582D01*
X138419599Y-88730582D01*
X138443659Y-89380377D01*
X138646035Y-89868958D01*
X138912837Y-89967557D01*
X139885395Y-88995000D01*
X140244605Y-88995000D01*
X141217163Y-89967557D01*
X141483965Y-89868958D01*
X141710401Y-89259418D01*
X141686341Y-88609623D01*
X141483965Y-88121042D01*
X141217163Y-88022443D01*
X140244605Y-88995000D01*
X139885395Y-88995000D01*
X138912837Y-88022443D01*
X138646035Y-88121042D01*
X138419599Y-88730582D01*
X135206658Y-88730582D01*
X135217620Y-88719620D01*
X135483600Y-88321553D01*
X135577000Y-87852000D01*
X135577000Y-87842837D01*
X139092443Y-87842837D01*
X140065000Y-88815395D01*
X141037557Y-87842837D01*
X140938958Y-87576035D01*
X140329418Y-87349599D01*
X139679623Y-87373659D01*
X139191042Y-87576035D01*
X139092443Y-87842837D01*
X135577000Y-87842837D01*
X135577000Y-86314900D01*
X135801539Y-86170413D01*
X135990369Y-85894052D01*
X136056801Y-85566000D01*
X136056801Y-83534000D01*
X135999135Y-83227532D01*
X135818013Y-82946061D01*
X135541652Y-82757231D01*
X135213600Y-82690799D01*
X133486400Y-82690799D01*
X133179932Y-82748465D01*
X132898461Y-82929587D01*
X132713260Y-83200637D01*
X132712036Y-83199268D01*
X132184791Y-82945291D01*
X132169026Y-82942642D01*
X131937000Y-83063783D01*
X131937000Y-84423000D01*
X131957000Y-84423000D01*
X131957000Y-84677000D01*
X131937000Y-84677000D01*
X131937000Y-86036217D01*
X132169026Y-86157358D01*
X132184791Y-86154709D01*
X132712036Y-85900732D01*
X132716115Y-85896167D01*
X132881987Y-86153939D01*
X133123000Y-86318617D01*
X133123000Y-87343760D01*
X128507760Y-91959000D01*
X119110240Y-91959000D01*
X116781000Y-89629760D01*
X116781000Y-84911913D01*
X120164816Y-84911913D01*
X120358046Y-85464320D01*
X120747964Y-85900732D01*
X121275209Y-86154709D01*
X121290974Y-86157358D01*
X121523000Y-86036217D01*
X121523000Y-84677000D01*
X120309076Y-84677000D01*
X120164816Y-84911913D01*
X116781000Y-84911913D01*
X116781000Y-84188087D01*
X120164816Y-84188087D01*
X120309076Y-84423000D01*
X121523000Y-84423000D01*
X121523000Y-83063783D01*
X121777000Y-83063783D01*
X121777000Y-84423000D01*
X121797000Y-84423000D01*
X121797000Y-84677000D01*
X121777000Y-84677000D01*
X121777000Y-86036217D01*
X122009026Y-86157358D01*
X122024791Y-86154709D01*
X122552036Y-85900732D01*
X122792525Y-85631567D01*
X122994565Y-85933942D01*
X123543035Y-86300418D01*
X124190000Y-86429107D01*
X124836965Y-86300418D01*
X125385435Y-85933942D01*
X125460000Y-85822348D01*
X125534565Y-85933942D01*
X126083035Y-86300418D01*
X126730000Y-86429107D01*
X127376965Y-86300418D01*
X127925435Y-85933942D01*
X128000000Y-85822348D01*
X128074565Y-85933942D01*
X128623035Y-86300418D01*
X129270000Y-86429107D01*
X129916965Y-86300418D01*
X130465435Y-85933942D01*
X130667475Y-85631567D01*
X130907964Y-85900732D01*
X131435209Y-86154709D01*
X131450974Y-86157358D01*
X131683000Y-86036217D01*
X131683000Y-84677000D01*
X131663000Y-84677000D01*
X131663000Y-84423000D01*
X131683000Y-84423000D01*
X131683000Y-83063783D01*
X131450974Y-82942642D01*
X131435209Y-82945291D01*
X130907964Y-83199268D01*
X130667475Y-83468433D01*
X130465435Y-83166058D01*
X129916965Y-82799582D01*
X129270000Y-82670893D01*
X128623035Y-82799582D01*
X128074565Y-83166058D01*
X128000000Y-83277652D01*
X127925435Y-83166058D01*
X127376965Y-82799582D01*
X126730000Y-82670893D01*
X126083035Y-82799582D01*
X125534565Y-83166058D01*
X125460000Y-83277652D01*
X125417000Y-83213298D01*
X125417000Y-82095936D01*
X125737520Y-81775974D01*
X126016172Y-81104905D01*
X126016806Y-80378283D01*
X125739326Y-79706728D01*
X125225974Y-79192480D01*
X124554905Y-78913828D01*
X123828283Y-78913194D01*
X123156728Y-79190674D01*
X122642480Y-79704026D01*
X122363828Y-80375095D01*
X122363194Y-81101717D01*
X122640674Y-81773272D01*
X122963000Y-82096161D01*
X122963000Y-83213298D01*
X122792525Y-83468433D01*
X122552036Y-83199268D01*
X122024791Y-82945291D01*
X122009026Y-82942642D01*
X121777000Y-83063783D01*
X121523000Y-83063783D01*
X121290974Y-82942642D01*
X121275209Y-82945291D01*
X120747964Y-83199268D01*
X120358046Y-83635680D01*
X120164816Y-84188087D01*
X116781000Y-84188087D01*
X116781000Y-71342240D01*
X124952240Y-63171000D01*
X132318000Y-63171000D01*
X132787553Y-63077600D01*
X133185620Y-62811620D01*
X135217620Y-60779620D01*
X135259461Y-60717000D01*
X135483600Y-60381553D01*
X135577000Y-59912000D01*
X135577000Y-57946702D01*
X135620000Y-57882348D01*
X135694565Y-57993942D01*
X136243035Y-58360418D01*
X136890000Y-58489107D01*
X137536965Y-58360418D01*
X138085435Y-57993942D01*
X138160000Y-57882348D01*
X138234565Y-57993942D01*
X138783035Y-58360418D01*
X139430000Y-58489107D01*
X140076965Y-58360418D01*
X140625435Y-57993942D01*
X140700000Y-57882348D01*
X140774565Y-57993942D01*
X141323035Y-58360418D01*
X141970000Y-58489107D01*
X142616965Y-58360418D01*
X143165435Y-57993942D01*
X143240000Y-57882348D01*
X143314565Y-57993942D01*
X143863035Y-58360418D01*
X144510000Y-58489107D01*
X145156965Y-58360418D01*
X145705435Y-57993942D01*
X145780000Y-57882348D01*
X145854565Y-57993942D01*
X146403035Y-58360418D01*
X147050000Y-58489107D01*
X147696965Y-58360418D01*
X148245435Y-57993942D01*
X148320000Y-57882348D01*
X148394565Y-57993942D01*
X148943035Y-58360418D01*
X149590000Y-58489107D01*
X150236965Y-58360418D01*
X150785435Y-57993942D01*
X150860000Y-57882348D01*
X150934565Y-57993942D01*
X151483035Y-58360418D01*
X152130000Y-58489107D01*
X152776965Y-58360418D01*
X153325435Y-57993942D01*
X153400000Y-57882348D01*
X153474565Y-57993942D01*
X154023035Y-58360418D01*
X154670000Y-58489107D01*
X155316965Y-58360418D01*
X155865435Y-57993942D01*
X155940000Y-57882348D01*
X156014565Y-57993942D01*
X156563035Y-58360418D01*
X157210000Y-58489107D01*
X157856965Y-58360418D01*
X158405435Y-57993942D01*
X158523000Y-57817994D01*
X158523000Y-57879760D01*
X157209760Y-59193000D01*
X147050000Y-59193000D01*
X146580448Y-59286399D01*
X146182380Y-59552380D01*
X139556760Y-66178000D01*
X128635000Y-66178000D01*
X128165448Y-66271399D01*
X127767380Y-66537380D01*
X120782380Y-73522380D01*
X120516400Y-73920447D01*
X120423000Y-74390000D01*
X120423000Y-74663186D01*
X120350562Y-75027356D01*
X120350562Y-75506654D01*
X120307562Y-75571008D01*
X120232997Y-75459414D01*
X119684527Y-75092938D01*
X119037562Y-74964249D01*
X118390597Y-75092938D01*
X117842127Y-75459414D01*
X117475651Y-76007884D01*
X117346962Y-76654849D01*
X117346962Y-77031863D01*
X117475651Y-77678828D01*
X117842127Y-78227298D01*
X118390597Y-78593774D01*
X119037562Y-78722463D01*
X119684527Y-78593774D01*
X120232997Y-78227298D01*
X120307562Y-78115704D01*
X120382127Y-78227298D01*
X120930597Y-78593774D01*
X121577562Y-78722463D01*
X122224527Y-78593774D01*
X122772997Y-78227298D01*
X122847562Y-78115704D01*
X122922127Y-78227298D01*
X123470597Y-78593774D01*
X124117562Y-78722463D01*
X124764527Y-78593774D01*
X125312997Y-78227298D01*
X125515037Y-77924923D01*
X125755526Y-78194088D01*
X126282771Y-78448065D01*
X126298536Y-78450714D01*
X126530562Y-78329573D01*
X126530562Y-76970356D01*
X126510562Y-76970356D01*
X126510562Y-76716356D01*
X126530562Y-76716356D01*
X126530562Y-75357139D01*
X126298536Y-75235998D01*
X126282771Y-75238647D01*
X125755526Y-75492624D01*
X125515037Y-75761789D01*
X125312997Y-75459414D01*
X124764527Y-75092938D01*
X124117562Y-74964249D01*
X123470597Y-75092938D01*
X122922127Y-75459414D01*
X122847562Y-75571008D01*
X122804562Y-75506654D01*
X122804562Y-75319088D01*
X122877000Y-74954918D01*
X122877000Y-74898240D01*
X128678000Y-69097240D01*
X128678000Y-70085100D01*
X128453461Y-70229587D01*
X128264631Y-70505948D01*
X128198199Y-70834000D01*
X128198199Y-72866000D01*
X128255865Y-73172468D01*
X128436987Y-73453939D01*
X128713348Y-73642769D01*
X129041400Y-73709201D01*
X130768600Y-73709201D01*
X131075068Y-73651535D01*
X131356539Y-73470413D01*
X131541740Y-73199363D01*
X131542964Y-73200732D01*
X132070209Y-73454709D01*
X132085974Y-73457358D01*
X132318000Y-73336217D01*
X132318000Y-71977000D01*
X132572000Y-71977000D01*
X132572000Y-73336217D01*
X132804026Y-73457358D01*
X132819791Y-73454709D01*
X133347036Y-73200732D01*
X133715000Y-72788892D01*
X134082964Y-73200732D01*
X134610209Y-73454709D01*
X134625974Y-73457358D01*
X134858000Y-73336217D01*
X134858000Y-71977000D01*
X135112000Y-71977000D01*
X135112000Y-73336217D01*
X135344026Y-73457358D01*
X135359791Y-73454709D01*
X135887036Y-73200732D01*
X136276954Y-72764320D01*
X136470184Y-72211913D01*
X136325924Y-71977000D01*
X135112000Y-71977000D01*
X134858000Y-71977000D01*
X132572000Y-71977000D01*
X132318000Y-71977000D01*
X132298000Y-71977000D01*
X132298000Y-71723000D01*
X132318000Y-71723000D01*
X132318000Y-70363783D01*
X132572000Y-70363783D01*
X132572000Y-71723000D01*
X134858000Y-71723000D01*
X134858000Y-70363783D01*
X135112000Y-70363783D01*
X135112000Y-71723000D01*
X136325924Y-71723000D01*
X136470184Y-71488087D01*
X136276954Y-70935680D01*
X135887036Y-70499268D01*
X135359791Y-70245291D01*
X135344026Y-70242642D01*
X135112000Y-70363783D01*
X134858000Y-70363783D01*
X134625974Y-70242642D01*
X134610209Y-70245291D01*
X134082964Y-70499268D01*
X133715000Y-70911108D01*
X133347036Y-70499268D01*
X132819791Y-70245291D01*
X132804026Y-70242642D01*
X132572000Y-70363783D01*
X132318000Y-70363783D01*
X132085974Y-70242642D01*
X132070209Y-70245291D01*
X131542964Y-70499268D01*
X131538885Y-70503833D01*
X131373013Y-70246061D01*
X131132000Y-70081383D01*
X131132000Y-68632000D01*
X140065000Y-68632000D01*
X140534553Y-68538600D01*
X140932620Y-68272620D01*
X147558240Y-61647000D01*
X157718000Y-61647000D01*
X158187553Y-61553600D01*
X158585620Y-61287620D01*
X160617620Y-59255620D01*
X160758766Y-59044380D01*
X160809000Y-58969200D01*
X160809000Y-63975760D01*
X151262380Y-73522380D01*
X150996400Y-73920447D01*
X150903000Y-74390000D01*
X150903000Y-74663186D01*
X150830562Y-75027356D01*
X150830562Y-75506654D01*
X150787562Y-75571008D01*
X150712997Y-75459414D01*
X150164527Y-75092938D01*
X149517562Y-74964249D01*
X148870597Y-75092938D01*
X148322127Y-75459414D01*
X148247562Y-75571008D01*
X148172997Y-75459414D01*
X147624527Y-75092938D01*
X146977562Y-74964249D01*
X146330597Y-75092938D01*
X145782127Y-75459414D01*
X145707562Y-75571008D01*
X145632997Y-75459414D01*
X145084527Y-75092938D01*
X144437562Y-74964249D01*
X143790597Y-75092938D01*
X143242127Y-75459414D01*
X143167562Y-75571008D01*
X143092997Y-75459414D01*
X142544527Y-75092938D01*
X141897562Y-74964249D01*
X141250597Y-75092938D01*
X140702127Y-75459414D01*
X140627562Y-75571008D01*
X140552997Y-75459414D01*
X140457000Y-75395271D01*
X140457000Y-73810801D01*
X140547600Y-73810801D01*
X140854068Y-73753135D01*
X141135539Y-73572013D01*
X141324369Y-73295652D01*
X141390801Y-72967600D01*
X141390801Y-70732400D01*
X141333135Y-70425932D01*
X141152013Y-70144461D01*
X140875652Y-69955631D01*
X140547600Y-69889199D01*
X138312400Y-69889199D01*
X138005932Y-69946865D01*
X137724461Y-70127987D01*
X137535631Y-70404348D01*
X137469199Y-70732400D01*
X137469199Y-72967600D01*
X137526865Y-73274068D01*
X137707987Y-73555539D01*
X137984348Y-73744369D01*
X138312400Y-73810801D01*
X138403000Y-73810801D01*
X138403000Y-75298468D01*
X138162127Y-75459414D01*
X138087562Y-75571008D01*
X138012997Y-75459414D01*
X137464527Y-75092938D01*
X136817562Y-74964249D01*
X136170597Y-75092938D01*
X135622127Y-75459414D01*
X135547562Y-75571008D01*
X135472997Y-75459414D01*
X134924527Y-75092938D01*
X134277562Y-74964249D01*
X133630597Y-75092938D01*
X133082127Y-75459414D01*
X133007562Y-75571008D01*
X132932997Y-75459414D01*
X132384527Y-75092938D01*
X131737562Y-74964249D01*
X131090597Y-75092938D01*
X130542127Y-75459414D01*
X130467562Y-75571008D01*
X130392997Y-75459414D01*
X129844527Y-75092938D01*
X129197562Y-74964249D01*
X128550597Y-75092938D01*
X128002127Y-75459414D01*
X127800087Y-75761789D01*
X127559598Y-75492624D01*
X127032353Y-75238647D01*
X127016588Y-75235998D01*
X126784562Y-75357139D01*
X126784562Y-76716356D01*
X126804562Y-76716356D01*
X126804562Y-76970356D01*
X126784562Y-76970356D01*
X126784562Y-78329573D01*
X127016588Y-78450714D01*
X127032353Y-78448065D01*
X127559598Y-78194088D01*
X127800087Y-77924923D01*
X128002127Y-78227298D01*
X128550597Y-78593774D01*
X129197562Y-78722463D01*
X129844527Y-78593774D01*
X130392997Y-78227298D01*
X130467562Y-78115704D01*
X130510562Y-78180058D01*
X130510562Y-79456376D01*
X130262480Y-79704026D01*
X129983828Y-80375095D01*
X129983194Y-81101717D01*
X130260674Y-81773272D01*
X130774026Y-82287520D01*
X131445095Y-82566172D01*
X132171717Y-82566806D01*
X132843272Y-82289326D01*
X133166161Y-81967000D01*
X138333345Y-81967000D01*
X138515674Y-82408272D01*
X139029026Y-82922520D01*
X139700095Y-83201172D01*
X140426717Y-83201806D01*
X141098272Y-82924326D01*
X141612520Y-82410974D01*
X141891172Y-81739905D01*
X141891806Y-81013283D01*
X141614326Y-80341728D01*
X141100974Y-79827480D01*
X140429905Y-79548828D01*
X139703283Y-79548194D01*
X139671972Y-79561131D01*
X139430000Y-79513000D01*
X133165936Y-79513000D01*
X132964562Y-79311275D01*
X132964562Y-78180058D01*
X133007562Y-78115704D01*
X133082127Y-78227298D01*
X133630597Y-78593774D01*
X134277562Y-78722463D01*
X134924527Y-78593774D01*
X135472997Y-78227298D01*
X135547562Y-78115704D01*
X135622127Y-78227298D01*
X136170597Y-78593774D01*
X136817562Y-78722463D01*
X137464527Y-78593774D01*
X138012997Y-78227298D01*
X138087562Y-78115704D01*
X138162127Y-78227298D01*
X138710597Y-78593774D01*
X139357562Y-78722463D01*
X140004527Y-78593774D01*
X140552997Y-78227298D01*
X140627562Y-78115704D01*
X140702127Y-78227298D01*
X141250597Y-78593774D01*
X141897562Y-78722463D01*
X142544527Y-78593774D01*
X143092997Y-78227298D01*
X143167562Y-78115704D01*
X143242127Y-78227298D01*
X143790597Y-78593774D01*
X144437562Y-78722463D01*
X145084527Y-78593774D01*
X145632997Y-78227298D01*
X145707562Y-78115704D01*
X145782127Y-78227298D01*
X146330597Y-78593774D01*
X146977562Y-78722463D01*
X147624527Y-78593774D01*
X148172997Y-78227298D01*
X148247562Y-78115704D01*
X148322127Y-78227298D01*
X148870597Y-78593774D01*
X149517562Y-78722463D01*
X150164527Y-78593774D01*
X150712997Y-78227298D01*
X150787562Y-78115704D01*
X150862127Y-78227298D01*
X151410597Y-78593774D01*
X152057562Y-78722463D01*
X152704527Y-78593774D01*
X153252997Y-78227298D01*
X153327562Y-78115704D01*
X153402127Y-78227298D01*
X153950597Y-78593774D01*
X154597562Y-78722463D01*
X155244527Y-78593774D01*
X155607669Y-78351130D01*
X155669549Y-78447295D01*
X155945910Y-78636125D01*
X156273962Y-78702557D01*
X158001162Y-78702557D01*
X158307630Y-78644891D01*
X158589101Y-78463769D01*
X158777931Y-78187408D01*
X158844363Y-77859356D01*
X158844363Y-75827356D01*
X158786697Y-75520888D01*
X158605575Y-75239417D01*
X158329214Y-75050587D01*
X158001162Y-74984155D01*
X156273962Y-74984155D01*
X155967494Y-75041821D01*
X155824562Y-75133795D01*
X155824562Y-74970678D01*
X165189620Y-65605620D01*
X165359337Y-65351620D01*
X165455600Y-65207553D01*
X165549000Y-64738000D01*
X165549000Y-55594240D01*
X166100240Y-55043000D01*
X166448531Y-55043000D01*
X166174565Y-55226058D01*
X165808089Y-55774528D01*
X165679400Y-56421493D01*
X165679400Y-56798507D01*
X165808089Y-57445472D01*
X166174565Y-57993942D01*
X166723035Y-58360418D01*
X167370000Y-58489107D01*
X168016965Y-58360418D01*
X168565435Y-57993942D01*
X168640000Y-57882348D01*
X168714565Y-57993942D01*
X169263035Y-58360418D01*
X169910000Y-58489107D01*
X170556965Y-58360418D01*
X171105435Y-57993942D01*
X171307475Y-57691567D01*
X171547964Y-57960732D01*
X172075209Y-58214709D01*
X172090974Y-58217358D01*
X172323000Y-58096217D01*
X172323000Y-56737000D01*
X172303000Y-56737000D01*
X172303000Y-56483000D01*
X172323000Y-56483000D01*
X172323000Y-56463000D01*
X172577000Y-56463000D01*
X172577000Y-56483000D01*
X172597000Y-56483000D01*
X172597000Y-56737000D01*
X172577000Y-56737000D01*
X172577000Y-58096217D01*
X172809026Y-58217358D01*
X172824791Y-58214709D01*
X173352036Y-57960732D01*
X173592525Y-57691567D01*
X173794565Y-57993942D01*
X174343035Y-58360418D01*
X174990000Y-58489107D01*
X175636965Y-58360418D01*
X176185435Y-57993942D01*
X176260000Y-57882348D01*
X176334565Y-57993942D01*
X176883035Y-58360418D01*
X177530000Y-58489107D01*
X178176965Y-58360418D01*
X178725435Y-57993942D01*
X178800000Y-57882348D01*
X178874565Y-57993942D01*
X179423035Y-58360418D01*
X180070000Y-58489107D01*
X180716965Y-58360418D01*
X181265435Y-57993942D01*
X181340000Y-57882348D01*
X181414565Y-57993942D01*
X181963035Y-58360418D01*
X182610000Y-58489107D01*
X183256965Y-58360418D01*
X183805435Y-57993942D01*
X183880000Y-57882348D01*
X183954565Y-57993942D01*
X184503035Y-58360418D01*
X185150000Y-58489107D01*
X185796965Y-58360418D01*
X186160107Y-58117774D01*
X186221987Y-58213939D01*
X186498348Y-58402769D01*
X186826400Y-58469201D01*
X188553600Y-58469201D01*
X188860068Y-58411535D01*
X189141539Y-58230413D01*
X189330369Y-57954052D01*
X189396801Y-57626000D01*
X189396801Y-55594000D01*
X189339135Y-55287532D01*
X189158013Y-55006061D01*
X188917000Y-54841383D01*
X188917000Y-54794000D01*
X188881683Y-54616448D01*
X188823601Y-54324448D01*
X188557620Y-53926380D01*
X183515620Y-48884380D01*
X183500042Y-48873971D01*
X183117553Y-48618400D01*
X182648000Y-48525000D01*
X163052000Y-48525000D01*
X162582447Y-48618400D01*
X162199958Y-48873971D01*
X162184380Y-48884380D01*
X161090621Y-49978139D01*
X161090976Y-49571953D01*
X160843802Y-48973746D01*
X160386519Y-48515665D01*
X159788744Y-48267447D01*
X159141483Y-48266882D01*
X158543276Y-48514056D01*
X158389901Y-48667164D01*
X158332324Y-48667164D01*
X157862771Y-48760564D01*
X157547324Y-48971339D01*
X157464704Y-49026544D01*
X154156248Y-52335000D01*
X145742000Y-52335000D01*
X145272447Y-52428400D01*
X144938375Y-52651620D01*
X144874380Y-52694380D01*
X143642380Y-53926380D01*
X143376400Y-54324447D01*
X143283000Y-54794000D01*
X143283000Y-55273298D01*
X143240000Y-55337652D01*
X143197000Y-55273298D01*
X143197000Y-51687392D01*
X143355783Y-51528609D01*
X143569849Y-51528796D01*
X144168056Y-51281622D01*
X144626137Y-50824339D01*
X144874355Y-50226564D01*
X144874395Y-50179914D01*
X144874694Y-50179914D01*
X144874694Y-51020474D01*
X144971367Y-51253863D01*
X145149996Y-51432491D01*
X145383385Y-51529164D01*
X146223944Y-51529164D01*
X146382694Y-51370414D01*
X146382694Y-50021164D01*
X145033444Y-50021164D01*
X144874694Y-50179914D01*
X144874395Y-50179914D01*
X144874894Y-49608614D01*
X145033444Y-49767164D01*
X146382694Y-49767164D01*
X146382694Y-48417914D01*
X146636694Y-48417914D01*
X146636694Y-49767164D01*
X146656694Y-49767164D01*
X146656694Y-50021164D01*
X146636694Y-50021164D01*
X146636694Y-51370414D01*
X146795444Y-51529164D01*
X147636003Y-51529164D01*
X147869392Y-51432491D01*
X147958094Y-51343790D01*
X148314738Y-51582092D01*
X149013901Y-51721164D01*
X149085487Y-51721164D01*
X149784650Y-51582092D01*
X150377371Y-51186048D01*
X150420725Y-51121164D01*
X150775902Y-51121164D01*
X151189193Y-51397316D01*
X151811819Y-51521164D01*
X151875569Y-51521164D01*
X152498195Y-51397316D01*
X153026032Y-51044627D01*
X153378721Y-50516790D01*
X153502569Y-49894164D01*
X153378721Y-49271538D01*
X153026032Y-48743701D01*
X152498195Y-48391012D01*
X151875569Y-48267164D01*
X151811819Y-48267164D01*
X151189193Y-48391012D01*
X150775902Y-48667164D01*
X150420725Y-48667164D01*
X150377371Y-48602280D01*
X149784650Y-48206236D01*
X149085487Y-48067164D01*
X149013901Y-48067164D01*
X148314738Y-48206236D01*
X147958094Y-48444538D01*
X147869392Y-48355837D01*
X147636003Y-48259164D01*
X146795444Y-48259164D01*
X146636694Y-48417914D01*
X146382694Y-48417914D01*
X146223944Y-48259164D01*
X145383385Y-48259164D01*
X145149996Y-48355837D01*
X144971367Y-48534465D01*
X144874694Y-48767854D01*
X144874694Y-49578756D01*
X144627746Y-48981096D01*
X144170463Y-48523015D01*
X143572688Y-48274797D01*
X142925427Y-48274232D01*
X142327220Y-48521406D01*
X141869139Y-48978689D01*
X141620921Y-49576464D01*
X141620732Y-49793180D01*
X141102380Y-50311532D01*
X140836400Y-50709599D01*
X140743000Y-51179152D01*
X140743000Y-55273298D01*
X140700000Y-55337652D01*
X140657000Y-55273298D01*
X140657000Y-54794000D01*
X140563600Y-54324447D01*
X140297620Y-53926380D01*
X139065620Y-52694380D01*
X139001625Y-52651620D01*
X138667553Y-52428400D01*
X138198000Y-52335000D01*
X128508240Y-52335000D01*
X128028424Y-51855184D01*
X128028424Y-50870856D01*
X128179923Y-50719621D01*
X128400977Y-50187264D01*
X128651000Y-50187264D01*
X128651000Y-51027824D01*
X128747673Y-51261213D01*
X128926302Y-51439841D01*
X129159691Y-51536514D01*
X130000250Y-51536514D01*
X130159000Y-51377764D01*
X130159000Y-50028514D01*
X128809750Y-50028514D01*
X128651000Y-50187264D01*
X128400977Y-50187264D01*
X128428141Y-50121846D01*
X128428706Y-49474585D01*
X128181532Y-48876378D01*
X128080535Y-48775204D01*
X128651000Y-48775204D01*
X128651000Y-49615764D01*
X128809750Y-49774514D01*
X130159000Y-49774514D01*
X130159000Y-48425264D01*
X130413000Y-48425264D01*
X130413000Y-49774514D01*
X130433000Y-49774514D01*
X130433000Y-50028514D01*
X130413000Y-50028514D01*
X130413000Y-51377764D01*
X130571750Y-51536514D01*
X131412309Y-51536514D01*
X131645698Y-51439841D01*
X131734400Y-51351140D01*
X132091044Y-51589442D01*
X132790207Y-51728514D01*
X132861793Y-51728514D01*
X133560956Y-51589442D01*
X134153677Y-51193398D01*
X134197031Y-51128514D01*
X134559846Y-51128514D01*
X134973137Y-51404666D01*
X135595763Y-51528514D01*
X135659513Y-51528514D01*
X136282139Y-51404666D01*
X136809976Y-51051977D01*
X137162665Y-50524140D01*
X137286513Y-49901514D01*
X137162665Y-49278888D01*
X136809976Y-48751051D01*
X136282139Y-48398362D01*
X135659513Y-48274514D01*
X135595763Y-48274514D01*
X134973137Y-48398362D01*
X134559846Y-48674514D01*
X134197031Y-48674514D01*
X134153677Y-48609630D01*
X133560956Y-48213586D01*
X132861793Y-48074514D01*
X132790207Y-48074514D01*
X132091044Y-48213586D01*
X131734400Y-48451888D01*
X131645698Y-48363187D01*
X131412309Y-48266514D01*
X130571750Y-48266514D01*
X130413000Y-48425264D01*
X130159000Y-48425264D01*
X130000250Y-48266514D01*
X129159691Y-48266514D01*
X128926302Y-48363187D01*
X128747673Y-48541815D01*
X128651000Y-48775204D01*
X128080535Y-48775204D01*
X127724249Y-48418297D01*
X127126474Y-48170079D01*
X126479213Y-48169514D01*
X125881006Y-48416688D01*
X125422925Y-48873971D01*
X125174707Y-49471746D01*
X125174142Y-50119007D01*
X125421316Y-50717214D01*
X125574424Y-50870589D01*
X125574424Y-52363424D01*
X125667824Y-52832977D01*
X125841197Y-53092448D01*
X125933804Y-53231044D01*
X127132380Y-54429620D01*
X127530447Y-54695600D01*
X128000000Y-54789000D01*
X128203379Y-54789000D01*
X128099932Y-54808465D01*
X127818461Y-54989587D01*
X127629631Y-55265948D01*
X127563199Y-55594000D01*
X127563199Y-57626000D01*
X127620865Y-57932468D01*
X127801987Y-58213939D01*
X128078348Y-58402769D01*
X128406400Y-58469201D01*
X130133600Y-58469201D01*
X130440068Y-58411535D01*
X130721539Y-58230413D01*
X130798938Y-58117136D01*
X131163035Y-58360418D01*
X131810000Y-58489107D01*
X132456965Y-58360418D01*
X133005435Y-57993942D01*
X133080000Y-57882348D01*
X133123000Y-57946702D01*
X133123000Y-59403760D01*
X131809760Y-60717000D01*
X124444000Y-60717000D01*
X123974448Y-60810399D01*
X123576380Y-61076380D01*
X114686380Y-69966380D01*
X114420400Y-70364447D01*
X114327000Y-70834000D01*
X111392000Y-70834000D01*
X111392000Y-50082546D01*
X112212424Y-50082546D01*
X112212424Y-50923106D01*
X112309097Y-51156495D01*
X112487726Y-51335123D01*
X112721115Y-51431796D01*
X113561674Y-51431796D01*
X113720424Y-51273046D01*
X113720424Y-49923796D01*
X112371174Y-49923796D01*
X112212424Y-50082546D01*
X111392000Y-50082546D01*
X111392000Y-48670486D01*
X112212424Y-48670486D01*
X112212424Y-49511046D01*
X112371174Y-49669796D01*
X113720424Y-49669796D01*
X113720424Y-48320546D01*
X113974424Y-48320546D01*
X113974424Y-49669796D01*
X113994424Y-49669796D01*
X113994424Y-49923796D01*
X113974424Y-49923796D01*
X113974424Y-51273046D01*
X114133174Y-51431796D01*
X114973733Y-51431796D01*
X115207122Y-51335123D01*
X115295824Y-51246422D01*
X115652468Y-51484724D01*
X116351631Y-51623796D01*
X116423217Y-51623796D01*
X117122380Y-51484724D01*
X117715101Y-51088680D01*
X117758455Y-51023796D01*
X118113632Y-51023796D01*
X118526923Y-51299948D01*
X119149549Y-51423796D01*
X119213299Y-51423796D01*
X119835925Y-51299948D01*
X120363762Y-50947259D01*
X120716451Y-50419422D01*
X120840299Y-49796796D01*
X120716451Y-49174170D01*
X120363762Y-48646333D01*
X119835925Y-48293644D01*
X119213299Y-48169796D01*
X119149549Y-48169796D01*
X118526923Y-48293644D01*
X118113632Y-48569796D01*
X117758455Y-48569796D01*
X117715101Y-48504912D01*
X117122380Y-48108868D01*
X116423217Y-47969796D01*
X116351631Y-47969796D01*
X115652468Y-48108868D01*
X115295824Y-48347170D01*
X115207122Y-48258469D01*
X114973733Y-48161796D01*
X114133174Y-48161796D01*
X113974424Y-48320546D01*
X113720424Y-48320546D01*
X113561674Y-48161796D01*
X112721115Y-48161796D01*
X112487726Y-48258469D01*
X112309097Y-48437097D01*
X112212424Y-48670486D01*
X111392000Y-48670486D01*
X111392000Y-45987000D01*
X195453000Y-45987000D01*
X195453000Y-101473000D01*
X195453000Y-101473000D01*
G37*
X195453000Y-101473000D02*
X111392000Y-101473000D01*
X111392000Y-70834000D01*
X114327000Y-70834000D01*
X114327000Y-90138000D01*
X114420400Y-90607553D01*
X114686380Y-91005620D01*
X117734380Y-94053620D01*
X118132447Y-94319600D01*
X118602000Y-94413000D01*
X129016000Y-94413000D01*
X129485553Y-94319600D01*
X129883620Y-94053620D01*
X133790077Y-90147163D01*
X139092443Y-90147163D01*
X139191042Y-90413965D01*
X139800582Y-90640401D01*
X140450377Y-90616341D01*
X140938958Y-90413965D01*
X141037557Y-90147163D01*
X140065000Y-89174605D01*
X139092443Y-90147163D01*
X133790077Y-90147163D01*
X135206658Y-88730582D01*
X138419599Y-88730582D01*
X138443659Y-89380377D01*
X138646035Y-89868958D01*
X138912837Y-89967557D01*
X139885395Y-88995000D01*
X140244605Y-88995000D01*
X141217163Y-89967557D01*
X141483965Y-89868958D01*
X141710401Y-89259418D01*
X141686341Y-88609623D01*
X141483965Y-88121042D01*
X141217163Y-88022443D01*
X140244605Y-88995000D01*
X139885395Y-88995000D01*
X138912837Y-88022443D01*
X138646035Y-88121042D01*
X138419599Y-88730582D01*
X135206658Y-88730582D01*
X135217620Y-88719620D01*
X135483600Y-88321553D01*
X135577000Y-87852000D01*
X135577000Y-87842837D01*
X139092443Y-87842837D01*
X140065000Y-88815395D01*
X141037557Y-87842837D01*
X140938958Y-87576035D01*
X140329418Y-87349599D01*
X139679623Y-87373659D01*
X139191042Y-87576035D01*
X139092443Y-87842837D01*
X135577000Y-87842837D01*
X135577000Y-86314900D01*
X135801539Y-86170413D01*
X135990369Y-85894052D01*
X136056801Y-85566000D01*
X136056801Y-83534000D01*
X135999135Y-83227532D01*
X135818013Y-82946061D01*
X135541652Y-82757231D01*
X135213600Y-82690799D01*
X133486400Y-82690799D01*
X133179932Y-82748465D01*
X132898461Y-82929587D01*
X132713260Y-83200637D01*
X132712036Y-83199268D01*
X132184791Y-82945291D01*
X132169026Y-82942642D01*
X131937000Y-83063783D01*
X131937000Y-84423000D01*
X131957000Y-84423000D01*
X131957000Y-84677000D01*
X131937000Y-84677000D01*
X131937000Y-86036217D01*
X132169026Y-86157358D01*
X132184791Y-86154709D01*
X132712036Y-85900732D01*
X132716115Y-85896167D01*
X132881987Y-86153939D01*
X133123000Y-86318617D01*
X133123000Y-87343760D01*
X128507760Y-91959000D01*
X119110240Y-91959000D01*
X116781000Y-89629760D01*
X116781000Y-84911913D01*
X120164816Y-84911913D01*
X120358046Y-85464320D01*
X120747964Y-85900732D01*
X121275209Y-86154709D01*
X121290974Y-86157358D01*
X121523000Y-86036217D01*
X121523000Y-84677000D01*
X120309076Y-84677000D01*
X120164816Y-84911913D01*
X116781000Y-84911913D01*
X116781000Y-84188087D01*
X120164816Y-84188087D01*
X120309076Y-84423000D01*
X121523000Y-84423000D01*
X121523000Y-83063783D01*
X121777000Y-83063783D01*
X121777000Y-84423000D01*
X121797000Y-84423000D01*
X121797000Y-84677000D01*
X121777000Y-84677000D01*
X121777000Y-86036217D01*
X122009026Y-86157358D01*
X122024791Y-86154709D01*
X122552036Y-85900732D01*
X122792525Y-85631567D01*
X122994565Y-85933942D01*
X123543035Y-86300418D01*
X124190000Y-86429107D01*
X124836965Y-86300418D01*
X125385435Y-85933942D01*
X125460000Y-85822348D01*
X125534565Y-85933942D01*
X126083035Y-86300418D01*
X126730000Y-86429107D01*
X127376965Y-86300418D01*
X127925435Y-85933942D01*
X128000000Y-85822348D01*
X128074565Y-85933942D01*
X128623035Y-86300418D01*
X129270000Y-86429107D01*
X129916965Y-86300418D01*
X130465435Y-85933942D01*
X130667475Y-85631567D01*
X130907964Y-85900732D01*
X131435209Y-86154709D01*
X131450974Y-86157358D01*
X131683000Y-86036217D01*
X131683000Y-84677000D01*
X131663000Y-84677000D01*
X131663000Y-84423000D01*
X131683000Y-84423000D01*
X131683000Y-83063783D01*
X131450974Y-82942642D01*
X131435209Y-82945291D01*
X130907964Y-83199268D01*
X130667475Y-83468433D01*
X130465435Y-83166058D01*
X129916965Y-82799582D01*
X129270000Y-82670893D01*
X128623035Y-82799582D01*
X128074565Y-83166058D01*
X128000000Y-83277652D01*
X127925435Y-83166058D01*
X127376965Y-82799582D01*
X126730000Y-82670893D01*
X126083035Y-82799582D01*
X125534565Y-83166058D01*
X125460000Y-83277652D01*
X125417000Y-83213298D01*
X125417000Y-82095936D01*
X125737520Y-81775974D01*
X126016172Y-81104905D01*
X126016806Y-80378283D01*
X125739326Y-79706728D01*
X125225974Y-79192480D01*
X124554905Y-78913828D01*
X123828283Y-78913194D01*
X123156728Y-79190674D01*
X122642480Y-79704026D01*
X122363828Y-80375095D01*
X122363194Y-81101717D01*
X122640674Y-81773272D01*
X122963000Y-82096161D01*
X122963000Y-83213298D01*
X122792525Y-83468433D01*
X122552036Y-83199268D01*
X122024791Y-82945291D01*
X122009026Y-82942642D01*
X121777000Y-83063783D01*
X121523000Y-83063783D01*
X121290974Y-82942642D01*
X121275209Y-82945291D01*
X120747964Y-83199268D01*
X120358046Y-83635680D01*
X120164816Y-84188087D01*
X116781000Y-84188087D01*
X116781000Y-71342240D01*
X124952240Y-63171000D01*
X132318000Y-63171000D01*
X132787553Y-63077600D01*
X133185620Y-62811620D01*
X135217620Y-60779620D01*
X135259461Y-60717000D01*
X135483600Y-60381553D01*
X135577000Y-59912000D01*
X135577000Y-57946702D01*
X135620000Y-57882348D01*
X135694565Y-57993942D01*
X136243035Y-58360418D01*
X136890000Y-58489107D01*
X137536965Y-58360418D01*
X138085435Y-57993942D01*
X138160000Y-57882348D01*
X138234565Y-57993942D01*
X138783035Y-58360418D01*
X139430000Y-58489107D01*
X140076965Y-58360418D01*
X140625435Y-57993942D01*
X140700000Y-57882348D01*
X140774565Y-57993942D01*
X141323035Y-58360418D01*
X141970000Y-58489107D01*
X142616965Y-58360418D01*
X143165435Y-57993942D01*
X143240000Y-57882348D01*
X143314565Y-57993942D01*
X143863035Y-58360418D01*
X144510000Y-58489107D01*
X145156965Y-58360418D01*
X145705435Y-57993942D01*
X145780000Y-57882348D01*
X145854565Y-57993942D01*
X146403035Y-58360418D01*
X147050000Y-58489107D01*
X147696965Y-58360418D01*
X148245435Y-57993942D01*
X148320000Y-57882348D01*
X148394565Y-57993942D01*
X148943035Y-58360418D01*
X149590000Y-58489107D01*
X150236965Y-58360418D01*
X150785435Y-57993942D01*
X150860000Y-57882348D01*
X150934565Y-57993942D01*
X151483035Y-58360418D01*
X152130000Y-58489107D01*
X152776965Y-58360418D01*
X153325435Y-57993942D01*
X153400000Y-57882348D01*
X153474565Y-57993942D01*
X154023035Y-58360418D01*
X154670000Y-58489107D01*
X155316965Y-58360418D01*
X155865435Y-57993942D01*
X155940000Y-57882348D01*
X156014565Y-57993942D01*
X156563035Y-58360418D01*
X157210000Y-58489107D01*
X157856965Y-58360418D01*
X158405435Y-57993942D01*
X158523000Y-57817994D01*
X158523000Y-57879760D01*
X157209760Y-59193000D01*
X147050000Y-59193000D01*
X146580448Y-59286399D01*
X146182380Y-59552380D01*
X139556760Y-66178000D01*
X128635000Y-66178000D01*
X128165448Y-66271399D01*
X127767380Y-66537380D01*
X120782380Y-73522380D01*
X120516400Y-73920447D01*
X120423000Y-74390000D01*
X120423000Y-74663186D01*
X120350562Y-75027356D01*
X120350562Y-75506654D01*
X120307562Y-75571008D01*
X120232997Y-75459414D01*
X119684527Y-75092938D01*
X119037562Y-74964249D01*
X118390597Y-75092938D01*
X117842127Y-75459414D01*
X117475651Y-76007884D01*
X117346962Y-76654849D01*
X117346962Y-77031863D01*
X117475651Y-77678828D01*
X117842127Y-78227298D01*
X118390597Y-78593774D01*
X119037562Y-78722463D01*
X119684527Y-78593774D01*
X120232997Y-78227298D01*
X120307562Y-78115704D01*
X120382127Y-78227298D01*
X120930597Y-78593774D01*
X121577562Y-78722463D01*
X122224527Y-78593774D01*
X122772997Y-78227298D01*
X122847562Y-78115704D01*
X122922127Y-78227298D01*
X123470597Y-78593774D01*
X124117562Y-78722463D01*
X124764527Y-78593774D01*
X125312997Y-78227298D01*
X125515037Y-77924923D01*
X125755526Y-78194088D01*
X126282771Y-78448065D01*
X126298536Y-78450714D01*
X126530562Y-78329573D01*
X126530562Y-76970356D01*
X126510562Y-76970356D01*
X126510562Y-76716356D01*
X126530562Y-76716356D01*
X126530562Y-75357139D01*
X126298536Y-75235998D01*
X126282771Y-75238647D01*
X125755526Y-75492624D01*
X125515037Y-75761789D01*
X125312997Y-75459414D01*
X124764527Y-75092938D01*
X124117562Y-74964249D01*
X123470597Y-75092938D01*
X122922127Y-75459414D01*
X122847562Y-75571008D01*
X122804562Y-75506654D01*
X122804562Y-75319088D01*
X122877000Y-74954918D01*
X122877000Y-74898240D01*
X128678000Y-69097240D01*
X128678000Y-70085100D01*
X128453461Y-70229587D01*
X128264631Y-70505948D01*
X128198199Y-70834000D01*
X128198199Y-72866000D01*
X128255865Y-73172468D01*
X128436987Y-73453939D01*
X128713348Y-73642769D01*
X129041400Y-73709201D01*
X130768600Y-73709201D01*
X131075068Y-73651535D01*
X131356539Y-73470413D01*
X131541740Y-73199363D01*
X131542964Y-73200732D01*
X132070209Y-73454709D01*
X132085974Y-73457358D01*
X132318000Y-73336217D01*
X132318000Y-71977000D01*
X132572000Y-71977000D01*
X132572000Y-73336217D01*
X132804026Y-73457358D01*
X132819791Y-73454709D01*
X133347036Y-73200732D01*
X133715000Y-72788892D01*
X134082964Y-73200732D01*
X134610209Y-73454709D01*
X134625974Y-73457358D01*
X134858000Y-73336217D01*
X134858000Y-71977000D01*
X135112000Y-71977000D01*
X135112000Y-73336217D01*
X135344026Y-73457358D01*
X135359791Y-73454709D01*
X135887036Y-73200732D01*
X136276954Y-72764320D01*
X136470184Y-72211913D01*
X136325924Y-71977000D01*
X135112000Y-71977000D01*
X134858000Y-71977000D01*
X132572000Y-71977000D01*
X132318000Y-71977000D01*
X132298000Y-71977000D01*
X132298000Y-71723000D01*
X132318000Y-71723000D01*
X132318000Y-70363783D01*
X132572000Y-70363783D01*
X132572000Y-71723000D01*
X134858000Y-71723000D01*
X134858000Y-70363783D01*
X135112000Y-70363783D01*
X135112000Y-71723000D01*
X136325924Y-71723000D01*
X136470184Y-71488087D01*
X136276954Y-70935680D01*
X135887036Y-70499268D01*
X135359791Y-70245291D01*
X135344026Y-70242642D01*
X135112000Y-70363783D01*
X134858000Y-70363783D01*
X134625974Y-70242642D01*
X134610209Y-70245291D01*
X134082964Y-70499268D01*
X133715000Y-70911108D01*
X133347036Y-70499268D01*
X132819791Y-70245291D01*
X132804026Y-70242642D01*
X132572000Y-70363783D01*
X132318000Y-70363783D01*
X132085974Y-70242642D01*
X132070209Y-70245291D01*
X131542964Y-70499268D01*
X131538885Y-70503833D01*
X131373013Y-70246061D01*
X131132000Y-70081383D01*
X131132000Y-68632000D01*
X140065000Y-68632000D01*
X140534553Y-68538600D01*
X140932620Y-68272620D01*
X147558240Y-61647000D01*
X157718000Y-61647000D01*
X158187553Y-61553600D01*
X158585620Y-61287620D01*
X160617620Y-59255620D01*
X160758766Y-59044380D01*
X160809000Y-58969200D01*
X160809000Y-63975760D01*
X151262380Y-73522380D01*
X150996400Y-73920447D01*
X150903000Y-74390000D01*
X150903000Y-74663186D01*
X150830562Y-75027356D01*
X150830562Y-75506654D01*
X150787562Y-75571008D01*
X150712997Y-75459414D01*
X150164527Y-75092938D01*
X149517562Y-74964249D01*
X148870597Y-75092938D01*
X148322127Y-75459414D01*
X148247562Y-75571008D01*
X148172997Y-75459414D01*
X147624527Y-75092938D01*
X146977562Y-74964249D01*
X146330597Y-75092938D01*
X145782127Y-75459414D01*
X145707562Y-75571008D01*
X145632997Y-75459414D01*
X145084527Y-75092938D01*
X144437562Y-74964249D01*
X143790597Y-75092938D01*
X143242127Y-75459414D01*
X143167562Y-75571008D01*
X143092997Y-75459414D01*
X142544527Y-75092938D01*
X141897562Y-74964249D01*
X141250597Y-75092938D01*
X140702127Y-75459414D01*
X140627562Y-75571008D01*
X140552997Y-75459414D01*
X140457000Y-75395271D01*
X140457000Y-73810801D01*
X140547600Y-73810801D01*
X140854068Y-73753135D01*
X141135539Y-73572013D01*
X141324369Y-73295652D01*
X141390801Y-72967600D01*
X141390801Y-70732400D01*
X141333135Y-70425932D01*
X141152013Y-70144461D01*
X140875652Y-69955631D01*
X140547600Y-69889199D01*
X138312400Y-69889199D01*
X138005932Y-69946865D01*
X137724461Y-70127987D01*
X137535631Y-70404348D01*
X137469199Y-70732400D01*
X137469199Y-72967600D01*
X137526865Y-73274068D01*
X137707987Y-73555539D01*
X137984348Y-73744369D01*
X138312400Y-73810801D01*
X138403000Y-73810801D01*
X138403000Y-75298468D01*
X138162127Y-75459414D01*
X138087562Y-75571008D01*
X138012997Y-75459414D01*
X137464527Y-75092938D01*
X136817562Y-74964249D01*
X136170597Y-75092938D01*
X135622127Y-75459414D01*
X135547562Y-75571008D01*
X135472997Y-75459414D01*
X134924527Y-75092938D01*
X134277562Y-74964249D01*
X133630597Y-75092938D01*
X133082127Y-75459414D01*
X133007562Y-75571008D01*
X132932997Y-75459414D01*
X132384527Y-75092938D01*
X131737562Y-74964249D01*
X131090597Y-75092938D01*
X130542127Y-75459414D01*
X130467562Y-75571008D01*
X130392997Y-75459414D01*
X129844527Y-75092938D01*
X129197562Y-74964249D01*
X128550597Y-75092938D01*
X128002127Y-75459414D01*
X127800087Y-75761789D01*
X127559598Y-75492624D01*
X127032353Y-75238647D01*
X127016588Y-75235998D01*
X126784562Y-75357139D01*
X126784562Y-76716356D01*
X126804562Y-76716356D01*
X126804562Y-76970356D01*
X126784562Y-76970356D01*
X126784562Y-78329573D01*
X127016588Y-78450714D01*
X127032353Y-78448065D01*
X127559598Y-78194088D01*
X127800087Y-77924923D01*
X128002127Y-78227298D01*
X128550597Y-78593774D01*
X129197562Y-78722463D01*
X129844527Y-78593774D01*
X130392997Y-78227298D01*
X130467562Y-78115704D01*
X130510562Y-78180058D01*
X130510562Y-79456376D01*
X130262480Y-79704026D01*
X129983828Y-80375095D01*
X129983194Y-81101717D01*
X130260674Y-81773272D01*
X130774026Y-82287520D01*
X131445095Y-82566172D01*
X132171717Y-82566806D01*
X132843272Y-82289326D01*
X133166161Y-81967000D01*
X138333345Y-81967000D01*
X138515674Y-82408272D01*
X139029026Y-82922520D01*
X139700095Y-83201172D01*
X140426717Y-83201806D01*
X141098272Y-82924326D01*
X141612520Y-82410974D01*
X141891172Y-81739905D01*
X141891806Y-81013283D01*
X141614326Y-80341728D01*
X141100974Y-79827480D01*
X140429905Y-79548828D01*
X139703283Y-79548194D01*
X139671972Y-79561131D01*
X139430000Y-79513000D01*
X133165936Y-79513000D01*
X132964562Y-79311275D01*
X132964562Y-78180058D01*
X133007562Y-78115704D01*
X133082127Y-78227298D01*
X133630597Y-78593774D01*
X134277562Y-78722463D01*
X134924527Y-78593774D01*
X135472997Y-78227298D01*
X135547562Y-78115704D01*
X135622127Y-78227298D01*
X136170597Y-78593774D01*
X136817562Y-78722463D01*
X137464527Y-78593774D01*
X138012997Y-78227298D01*
X138087562Y-78115704D01*
X138162127Y-78227298D01*
X138710597Y-78593774D01*
X139357562Y-78722463D01*
X140004527Y-78593774D01*
X140552997Y-78227298D01*
X140627562Y-78115704D01*
X140702127Y-78227298D01*
X141250597Y-78593774D01*
X141897562Y-78722463D01*
X142544527Y-78593774D01*
X143092997Y-78227298D01*
X143167562Y-78115704D01*
X143242127Y-78227298D01*
X143790597Y-78593774D01*
X144437562Y-78722463D01*
X145084527Y-78593774D01*
X145632997Y-78227298D01*
X145707562Y-78115704D01*
X145782127Y-78227298D01*
X146330597Y-78593774D01*
X146977562Y-78722463D01*
X147624527Y-78593774D01*
X148172997Y-78227298D01*
X148247562Y-78115704D01*
X148322127Y-78227298D01*
X148870597Y-78593774D01*
X149517562Y-78722463D01*
X150164527Y-78593774D01*
X150712997Y-78227298D01*
X150787562Y-78115704D01*
X150862127Y-78227298D01*
X151410597Y-78593774D01*
X152057562Y-78722463D01*
X152704527Y-78593774D01*
X153252997Y-78227298D01*
X153327562Y-78115704D01*
X153402127Y-78227298D01*
X153950597Y-78593774D01*
X154597562Y-78722463D01*
X155244527Y-78593774D01*
X155607669Y-78351130D01*
X155669549Y-78447295D01*
X155945910Y-78636125D01*
X156273962Y-78702557D01*
X158001162Y-78702557D01*
X158307630Y-78644891D01*
X158589101Y-78463769D01*
X158777931Y-78187408D01*
X158844363Y-77859356D01*
X158844363Y-75827356D01*
X158786697Y-75520888D01*
X158605575Y-75239417D01*
X158329214Y-75050587D01*
X158001162Y-74984155D01*
X156273962Y-74984155D01*
X155967494Y-75041821D01*
X155824562Y-75133795D01*
X155824562Y-74970678D01*
X165189620Y-65605620D01*
X165359337Y-65351620D01*
X165455600Y-65207553D01*
X165549000Y-64738000D01*
X165549000Y-55594240D01*
X166100240Y-55043000D01*
X166448531Y-55043000D01*
X166174565Y-55226058D01*
X165808089Y-55774528D01*
X165679400Y-56421493D01*
X165679400Y-56798507D01*
X165808089Y-57445472D01*
X166174565Y-57993942D01*
X166723035Y-58360418D01*
X167370000Y-58489107D01*
X168016965Y-58360418D01*
X168565435Y-57993942D01*
X168640000Y-57882348D01*
X168714565Y-57993942D01*
X169263035Y-58360418D01*
X169910000Y-58489107D01*
X170556965Y-58360418D01*
X171105435Y-57993942D01*
X171307475Y-57691567D01*
X171547964Y-57960732D01*
X172075209Y-58214709D01*
X172090974Y-58217358D01*
X172323000Y-58096217D01*
X172323000Y-56737000D01*
X172303000Y-56737000D01*
X172303000Y-56483000D01*
X172323000Y-56483000D01*
X172323000Y-56463000D01*
X172577000Y-56463000D01*
X172577000Y-56483000D01*
X172597000Y-56483000D01*
X172597000Y-56737000D01*
X172577000Y-56737000D01*
X172577000Y-58096217D01*
X172809026Y-58217358D01*
X172824791Y-58214709D01*
X173352036Y-57960732D01*
X173592525Y-57691567D01*
X173794565Y-57993942D01*
X174343035Y-58360418D01*
X174990000Y-58489107D01*
X175636965Y-58360418D01*
X176185435Y-57993942D01*
X176260000Y-57882348D01*
X176334565Y-57993942D01*
X176883035Y-58360418D01*
X177530000Y-58489107D01*
X178176965Y-58360418D01*
X178725435Y-57993942D01*
X178800000Y-57882348D01*
X178874565Y-57993942D01*
X179423035Y-58360418D01*
X180070000Y-58489107D01*
X180716965Y-58360418D01*
X181265435Y-57993942D01*
X181340000Y-57882348D01*
X181414565Y-57993942D01*
X181963035Y-58360418D01*
X182610000Y-58489107D01*
X183256965Y-58360418D01*
X183805435Y-57993942D01*
X183880000Y-57882348D01*
X183954565Y-57993942D01*
X184503035Y-58360418D01*
X185150000Y-58489107D01*
X185796965Y-58360418D01*
X186160107Y-58117774D01*
X186221987Y-58213939D01*
X186498348Y-58402769D01*
X186826400Y-58469201D01*
X188553600Y-58469201D01*
X188860068Y-58411535D01*
X189141539Y-58230413D01*
X189330369Y-57954052D01*
X189396801Y-57626000D01*
X189396801Y-55594000D01*
X189339135Y-55287532D01*
X189158013Y-55006061D01*
X188917000Y-54841383D01*
X188917000Y-54794000D01*
X188881683Y-54616448D01*
X188823601Y-54324448D01*
X188557620Y-53926380D01*
X183515620Y-48884380D01*
X183500042Y-48873971D01*
X183117553Y-48618400D01*
X182648000Y-48525000D01*
X163052000Y-48525000D01*
X162582447Y-48618400D01*
X162199958Y-48873971D01*
X162184380Y-48884380D01*
X161090621Y-49978139D01*
X161090976Y-49571953D01*
X160843802Y-48973746D01*
X160386519Y-48515665D01*
X159788744Y-48267447D01*
X159141483Y-48266882D01*
X158543276Y-48514056D01*
X158389901Y-48667164D01*
X158332324Y-48667164D01*
X157862771Y-48760564D01*
X157547324Y-48971339D01*
X157464704Y-49026544D01*
X154156248Y-52335000D01*
X145742000Y-52335000D01*
X145272447Y-52428400D01*
X144938375Y-52651620D01*
X144874380Y-52694380D01*
X143642380Y-53926380D01*
X143376400Y-54324447D01*
X143283000Y-54794000D01*
X143283000Y-55273298D01*
X143240000Y-55337652D01*
X143197000Y-55273298D01*
X143197000Y-51687392D01*
X143355783Y-51528609D01*
X143569849Y-51528796D01*
X144168056Y-51281622D01*
X144626137Y-50824339D01*
X144874355Y-50226564D01*
X144874395Y-50179914D01*
X144874694Y-50179914D01*
X144874694Y-51020474D01*
X144971367Y-51253863D01*
X145149996Y-51432491D01*
X145383385Y-51529164D01*
X146223944Y-51529164D01*
X146382694Y-51370414D01*
X146382694Y-50021164D01*
X145033444Y-50021164D01*
X144874694Y-50179914D01*
X144874395Y-50179914D01*
X144874894Y-49608614D01*
X145033444Y-49767164D01*
X146382694Y-49767164D01*
X146382694Y-48417914D01*
X146636694Y-48417914D01*
X146636694Y-49767164D01*
X146656694Y-49767164D01*
X146656694Y-50021164D01*
X146636694Y-50021164D01*
X146636694Y-51370414D01*
X146795444Y-51529164D01*
X147636003Y-51529164D01*
X147869392Y-51432491D01*
X147958094Y-51343790D01*
X148314738Y-51582092D01*
X149013901Y-51721164D01*
X149085487Y-51721164D01*
X149784650Y-51582092D01*
X150377371Y-51186048D01*
X150420725Y-51121164D01*
X150775902Y-51121164D01*
X151189193Y-51397316D01*
X151811819Y-51521164D01*
X151875569Y-51521164D01*
X152498195Y-51397316D01*
X153026032Y-51044627D01*
X153378721Y-50516790D01*
X153502569Y-49894164D01*
X153378721Y-49271538D01*
X153026032Y-48743701D01*
X152498195Y-48391012D01*
X151875569Y-48267164D01*
X151811819Y-48267164D01*
X151189193Y-48391012D01*
X150775902Y-48667164D01*
X150420725Y-48667164D01*
X150377371Y-48602280D01*
X149784650Y-48206236D01*
X149085487Y-48067164D01*
X149013901Y-48067164D01*
X148314738Y-48206236D01*
X147958094Y-48444538D01*
X147869392Y-48355837D01*
X147636003Y-48259164D01*
X146795444Y-48259164D01*
X146636694Y-48417914D01*
X146382694Y-48417914D01*
X146223944Y-48259164D01*
X145383385Y-48259164D01*
X145149996Y-48355837D01*
X144971367Y-48534465D01*
X144874694Y-48767854D01*
X144874694Y-49578756D01*
X144627746Y-48981096D01*
X144170463Y-48523015D01*
X143572688Y-48274797D01*
X142925427Y-48274232D01*
X142327220Y-48521406D01*
X141869139Y-48978689D01*
X141620921Y-49576464D01*
X141620732Y-49793180D01*
X141102380Y-50311532D01*
X140836400Y-50709599D01*
X140743000Y-51179152D01*
X140743000Y-55273298D01*
X140700000Y-55337652D01*
X140657000Y-55273298D01*
X140657000Y-54794000D01*
X140563600Y-54324447D01*
X140297620Y-53926380D01*
X139065620Y-52694380D01*
X139001625Y-52651620D01*
X138667553Y-52428400D01*
X138198000Y-52335000D01*
X128508240Y-52335000D01*
X128028424Y-51855184D01*
X128028424Y-50870856D01*
X128179923Y-50719621D01*
X128400977Y-50187264D01*
X128651000Y-50187264D01*
X128651000Y-51027824D01*
X128747673Y-51261213D01*
X128926302Y-51439841D01*
X129159691Y-51536514D01*
X130000250Y-51536514D01*
X130159000Y-51377764D01*
X130159000Y-50028514D01*
X128809750Y-50028514D01*
X128651000Y-50187264D01*
X128400977Y-50187264D01*
X128428141Y-50121846D01*
X128428706Y-49474585D01*
X128181532Y-48876378D01*
X128080535Y-48775204D01*
X128651000Y-48775204D01*
X128651000Y-49615764D01*
X128809750Y-49774514D01*
X130159000Y-49774514D01*
X130159000Y-48425264D01*
X130413000Y-48425264D01*
X130413000Y-49774514D01*
X130433000Y-49774514D01*
X130433000Y-50028514D01*
X130413000Y-50028514D01*
X130413000Y-51377764D01*
X130571750Y-51536514D01*
X131412309Y-51536514D01*
X131645698Y-51439841D01*
X131734400Y-51351140D01*
X132091044Y-51589442D01*
X132790207Y-51728514D01*
X132861793Y-51728514D01*
X133560956Y-51589442D01*
X134153677Y-51193398D01*
X134197031Y-51128514D01*
X134559846Y-51128514D01*
X134973137Y-51404666D01*
X135595763Y-51528514D01*
X135659513Y-51528514D01*
X136282139Y-51404666D01*
X136809976Y-51051977D01*
X137162665Y-50524140D01*
X137286513Y-49901514D01*
X137162665Y-49278888D01*
X136809976Y-48751051D01*
X136282139Y-48398362D01*
X135659513Y-48274514D01*
X135595763Y-48274514D01*
X134973137Y-48398362D01*
X134559846Y-48674514D01*
X134197031Y-48674514D01*
X134153677Y-48609630D01*
X133560956Y-48213586D01*
X132861793Y-48074514D01*
X132790207Y-48074514D01*
X132091044Y-48213586D01*
X131734400Y-48451888D01*
X131645698Y-48363187D01*
X131412309Y-48266514D01*
X130571750Y-48266514D01*
X130413000Y-48425264D01*
X130159000Y-48425264D01*
X130000250Y-48266514D01*
X129159691Y-48266514D01*
X128926302Y-48363187D01*
X128747673Y-48541815D01*
X128651000Y-48775204D01*
X128080535Y-48775204D01*
X127724249Y-48418297D01*
X127126474Y-48170079D01*
X126479213Y-48169514D01*
X125881006Y-48416688D01*
X125422925Y-48873971D01*
X125174707Y-49471746D01*
X125174142Y-50119007D01*
X125421316Y-50717214D01*
X125574424Y-50870589D01*
X125574424Y-52363424D01*
X125667824Y-52832977D01*
X125841197Y-53092448D01*
X125933804Y-53231044D01*
X127132380Y-54429620D01*
X127530447Y-54695600D01*
X128000000Y-54789000D01*
X128203379Y-54789000D01*
X128099932Y-54808465D01*
X127818461Y-54989587D01*
X127629631Y-55265948D01*
X127563199Y-55594000D01*
X127563199Y-57626000D01*
X127620865Y-57932468D01*
X127801987Y-58213939D01*
X128078348Y-58402769D01*
X128406400Y-58469201D01*
X130133600Y-58469201D01*
X130440068Y-58411535D01*
X130721539Y-58230413D01*
X130798938Y-58117136D01*
X131163035Y-58360418D01*
X131810000Y-58489107D01*
X132456965Y-58360418D01*
X133005435Y-57993942D01*
X133080000Y-57882348D01*
X133123000Y-57946702D01*
X133123000Y-59403760D01*
X131809760Y-60717000D01*
X124444000Y-60717000D01*
X123974448Y-60810399D01*
X123576380Y-61076380D01*
X114686380Y-69966380D01*
X114420400Y-70364447D01*
X114327000Y-70834000D01*
X111392000Y-70834000D01*
X111392000Y-50082546D01*
X112212424Y-50082546D01*
X112212424Y-50923106D01*
X112309097Y-51156495D01*
X112487726Y-51335123D01*
X112721115Y-51431796D01*
X113561674Y-51431796D01*
X113720424Y-51273046D01*
X113720424Y-49923796D01*
X112371174Y-49923796D01*
X112212424Y-50082546D01*
X111392000Y-50082546D01*
X111392000Y-48670486D01*
X112212424Y-48670486D01*
X112212424Y-49511046D01*
X112371174Y-49669796D01*
X113720424Y-49669796D01*
X113720424Y-48320546D01*
X113974424Y-48320546D01*
X113974424Y-49669796D01*
X113994424Y-49669796D01*
X113994424Y-49923796D01*
X113974424Y-49923796D01*
X113974424Y-51273046D01*
X114133174Y-51431796D01*
X114973733Y-51431796D01*
X115207122Y-51335123D01*
X115295824Y-51246422D01*
X115652468Y-51484724D01*
X116351631Y-51623796D01*
X116423217Y-51623796D01*
X117122380Y-51484724D01*
X117715101Y-51088680D01*
X117758455Y-51023796D01*
X118113632Y-51023796D01*
X118526923Y-51299948D01*
X119149549Y-51423796D01*
X119213299Y-51423796D01*
X119835925Y-51299948D01*
X120363762Y-50947259D01*
X120716451Y-50419422D01*
X120840299Y-49796796D01*
X120716451Y-49174170D01*
X120363762Y-48646333D01*
X119835925Y-48293644D01*
X119213299Y-48169796D01*
X119149549Y-48169796D01*
X118526923Y-48293644D01*
X118113632Y-48569796D01*
X117758455Y-48569796D01*
X117715101Y-48504912D01*
X117122380Y-48108868D01*
X116423217Y-47969796D01*
X116351631Y-47969796D01*
X115652468Y-48108868D01*
X115295824Y-48347170D01*
X115207122Y-48258469D01*
X114973733Y-48161796D01*
X114133174Y-48161796D01*
X113974424Y-48320546D01*
X113720424Y-48320546D01*
X113561674Y-48161796D01*
X112721115Y-48161796D01*
X112487726Y-48258469D01*
X112309097Y-48437097D01*
X112212424Y-48670486D01*
X111392000Y-48670486D01*
X111392000Y-45987000D01*
X195453000Y-45987000D01*
X195453000Y-101473000D01*
M02*
