M48
;DRILL file {KiCad 4.0.5} date 03/28/17 12:08:49
;FORMAT={-:-/ absolute / inch / decimal}
FMAT,2
INCH,TZ
T1C0.039
T2C0.040
%
G90
G05
M72
T1
X4.85Y-3.1
X5.15Y-3.1
X5.475Y-3.125
X5.475Y-3.425
T2
X4.6471Y-2.9466
X4.7471Y-2.9466
X4.75Y-3.25
X4.8471Y-2.9466
X4.85Y-3.25
X4.9471Y-2.9466
X4.95Y-3.25
X5.0471Y-2.9466
X5.05Y-2.15
X5.05Y-3.25
X5.075Y-2.75
X5.1471Y-2.9466
X5.15Y-2.15
X5.15Y-3.25
X5.175Y-2.75
X5.2471Y-2.9466
X5.25Y-2.15
X5.25Y-3.25
X5.275Y-2.75
X5.3471Y-2.9466
X5.35Y-2.15
X5.4471Y-2.9466
X5.45Y-2.15
X5.45Y-2.75
X5.5471Y-2.9466
X5.55Y-2.15
X5.6471Y-2.9466
X5.65Y-2.15
X5.7471Y-2.9466
X5.75Y-2.15
X5.8471Y-2.9466
X5.85Y-2.15
X5.9471Y-2.9466
X5.95Y-2.15
X6.0471Y-2.9466
X6.05Y-2.15
X6.1471Y-2.9466
X6.15Y-2.15
X6.55Y-2.15
X6.65Y-2.15
X6.75Y-2.15
X6.85Y-2.15
X6.95Y-2.15
X7.05Y-2.15
X7.15Y-2.15
X7.25Y-2.15
X7.35Y-2.15
T0
M30
