G04 #@! TF.FileFunction,Copper,L2,Bot,Signal*
%FSLAX46Y46*%
G04 Gerber Fmt 4.6, Leading zero omitted, Abs format (unit mm)*
G04 Created by KiCad (PCBNEW 4.0.6) date 03/31/17 11:42:18*
%MOMM*%
%LPD*%
G01*
G04 APERTURE LIST*
%ADD10C,0.100000*%
%ADD11R,2.032000X1.727200*%
%ADD12O,2.032000X1.727200*%
%ADD13R,1.727200X2.032000*%
%ADD14O,1.727200X2.032000*%
%ADD15C,1.998980*%
%ADD16R,2.000000X2.000000*%
%ADD17O,2.000000X2.000000*%
%ADD18C,1.600000*%
%ADD19O,1.600000X1.600000*%
%ADD20C,0.800000*%
%ADD21C,0.400000*%
%ADD22C,0.254000*%
G04 APERTURE END LIST*
D10*
D11*
X116205000Y-84328000D03*
D12*
X116205000Y-86868000D03*
X116205000Y-89408000D03*
D13*
X187690000Y-56610000D03*
D14*
X185150000Y-56610000D03*
X182610000Y-56610000D03*
X180070000Y-56610000D03*
X177530000Y-56610000D03*
X174990000Y-56610000D03*
X172450000Y-56610000D03*
X169910000Y-56610000D03*
X167370000Y-56610000D03*
D15*
X136398000Y-71120000D03*
X136398000Y-63500000D03*
X130937000Y-63500000D03*
X130937000Y-71120000D03*
D13*
X129270000Y-56610000D03*
D14*
X131810000Y-56610000D03*
X134350000Y-56610000D03*
X136890000Y-56610000D03*
X139430000Y-56610000D03*
X141970000Y-56610000D03*
X144510000Y-56610000D03*
X147050000Y-56610000D03*
X149590000Y-56610000D03*
X152130000Y-56610000D03*
X154670000Y-56610000D03*
X157210000Y-56610000D03*
D13*
X157137562Y-76843356D03*
D14*
X154597562Y-76843356D03*
X152057562Y-76843356D03*
X149517562Y-76843356D03*
X146977562Y-76843356D03*
X144437562Y-76843356D03*
X141897562Y-76843356D03*
X139357562Y-76843356D03*
X136817562Y-76843356D03*
X134277562Y-76843356D03*
X131737562Y-76843356D03*
X129197562Y-76843356D03*
X126657562Y-76843356D03*
X124117562Y-76843356D03*
X121577562Y-76843356D03*
X119037562Y-76843356D03*
D16*
X113847424Y-49796796D03*
D17*
X116387424Y-49796796D03*
D16*
X130286000Y-49901514D03*
D17*
X132826000Y-49901514D03*
D16*
X146509694Y-49894164D03*
D17*
X149049694Y-49894164D03*
D18*
X126801424Y-49796796D03*
D19*
X119181424Y-49796796D03*
D18*
X143247638Y-49901514D03*
D19*
X135627638Y-49901514D03*
D18*
X159463694Y-49894164D03*
D19*
X151843694Y-49894164D03*
D20*
X130937000Y-71120000D02*
X136398000Y-71120000D01*
X131737562Y-76843356D02*
X131737562Y-71920562D01*
X131737562Y-71920562D02*
X130937000Y-71120000D01*
X174990000Y-56610000D02*
X174990000Y-54794000D01*
X164322000Y-55086000D02*
X164322000Y-64738000D01*
X164322000Y-64738000D02*
X154597562Y-74462438D01*
X174990000Y-54794000D02*
X174012000Y-53816000D01*
X174012000Y-53816000D02*
X165592000Y-53816000D01*
X165592000Y-53816000D02*
X164322000Y-55086000D01*
X154597562Y-74462438D02*
X154597562Y-76843356D01*
X162036000Y-54832000D02*
X162036000Y-54070000D01*
X162036000Y-54070000D02*
X164322000Y-51784000D01*
X164322000Y-51784000D02*
X174990000Y-51784000D01*
X174990000Y-51784000D02*
X177530000Y-54324000D01*
X177530000Y-54324000D02*
X177530000Y-56610000D01*
X162036000Y-64484000D02*
X162036000Y-54832000D01*
X152130000Y-74390000D02*
X162036000Y-64484000D01*
X152057562Y-76843356D02*
X152057562Y-75027356D01*
X152130000Y-74954918D02*
X152130000Y-74390000D01*
X152057562Y-75027356D02*
X152130000Y-74954918D01*
X116205000Y-84328000D02*
X118021000Y-84328000D01*
X118021000Y-84328000D02*
X121577562Y-80771438D01*
X121577562Y-80771438D02*
X121577562Y-78659356D01*
X121577562Y-78659356D02*
X121577562Y-76843356D01*
X163052000Y-49752000D02*
X182610000Y-49752000D01*
X187690000Y-56610000D02*
X187690000Y-54794000D01*
X187690000Y-54794000D02*
X182648000Y-49752000D01*
X182648000Y-49752000D02*
X182610000Y-49752000D01*
X159750000Y-53054000D02*
X163052000Y-49752000D01*
X159750000Y-58388000D02*
X159750000Y-53562000D01*
X159750000Y-53562000D02*
X159750000Y-53054000D01*
X157718000Y-60420000D02*
X159750000Y-58388000D01*
X147050000Y-60420000D02*
X157464000Y-60420000D01*
X157464000Y-60420000D02*
X157718000Y-60420000D01*
X128635000Y-67405000D02*
X129905000Y-67405000D01*
X129905000Y-67405000D02*
X140065000Y-67405000D01*
X140065000Y-67405000D02*
X147050000Y-60420000D01*
X121650000Y-74390000D02*
X128635000Y-67405000D01*
X121650000Y-74954918D02*
X121650000Y-74390000D01*
X121577562Y-76843356D02*
X121577562Y-75027356D01*
X121577562Y-75027356D02*
X121650000Y-74954918D01*
X116387424Y-49796796D02*
X119181424Y-49796796D01*
X132826000Y-49901514D02*
X135627638Y-49901514D01*
X149049694Y-49894164D02*
X151843694Y-49894164D01*
X139430000Y-56610000D02*
X139430000Y-54794000D01*
X139430000Y-54794000D02*
X138198000Y-53562000D01*
X138198000Y-53562000D02*
X128000000Y-53562000D01*
X128000000Y-53562000D02*
X126801424Y-52363424D01*
X126801424Y-52363424D02*
X126801424Y-49796796D01*
X141970000Y-56610000D02*
X141970000Y-51179152D01*
X141970000Y-51179152D02*
X143247638Y-49901514D01*
X145742000Y-53562000D02*
X154664488Y-53562000D01*
X144510000Y-56610000D02*
X144510000Y-54794000D01*
X144510000Y-54794000D02*
X145742000Y-53562000D01*
X159463694Y-49894164D02*
X158332324Y-49894164D01*
X158332324Y-49894164D02*
X154664488Y-53562000D01*
X139357562Y-76843356D02*
X139357562Y-78659356D01*
X139357562Y-78659356D02*
X128608918Y-89408000D01*
X128608918Y-89408000D02*
X118021000Y-89408000D01*
X118021000Y-89408000D02*
X116205000Y-89408000D01*
D21*
X139430000Y-76770918D02*
X139357562Y-76843356D01*
D20*
X130788000Y-59944000D02*
X132842000Y-59944000D01*
X132842000Y-59944000D02*
X136398000Y-63500000D01*
X129270000Y-56610000D02*
X129270000Y-58426000D01*
X129270000Y-58426000D02*
X130788000Y-59944000D01*
D22*
G36*
X195453000Y-101473000D02*
X111392000Y-101473000D01*
X111392000Y-89408000D01*
X114325893Y-89408000D01*
X114454582Y-90054965D01*
X114821058Y-90603435D01*
X115369528Y-90969911D01*
X116016493Y-91098600D01*
X116393507Y-91098600D01*
X117040472Y-90969911D01*
X117541702Y-90635000D01*
X128608918Y-90635000D01*
X129078471Y-90541600D01*
X129476538Y-90275620D01*
X140225182Y-79526976D01*
X140491162Y-79128909D01*
X140584562Y-78659356D01*
X140584562Y-78180058D01*
X140627562Y-78115704D01*
X140702127Y-78227298D01*
X141250597Y-78593774D01*
X141897562Y-78722463D01*
X142544527Y-78593774D01*
X143092997Y-78227298D01*
X143167562Y-78115704D01*
X143242127Y-78227298D01*
X143790597Y-78593774D01*
X144437562Y-78722463D01*
X145084527Y-78593774D01*
X145632997Y-78227298D01*
X145707562Y-78115704D01*
X145782127Y-78227298D01*
X146330597Y-78593774D01*
X146977562Y-78722463D01*
X147624527Y-78593774D01*
X148172997Y-78227298D01*
X148247562Y-78115704D01*
X148322127Y-78227298D01*
X148870597Y-78593774D01*
X149517562Y-78722463D01*
X150164527Y-78593774D01*
X150712997Y-78227298D01*
X150787562Y-78115704D01*
X150862127Y-78227298D01*
X151410597Y-78593774D01*
X152057562Y-78722463D01*
X152704527Y-78593774D01*
X153252997Y-78227298D01*
X153327562Y-78115704D01*
X153402127Y-78227298D01*
X153950597Y-78593774D01*
X154597562Y-78722463D01*
X155244527Y-78593774D01*
X155607669Y-78351130D01*
X155669549Y-78447295D01*
X155945910Y-78636125D01*
X156273962Y-78702557D01*
X158001162Y-78702557D01*
X158307630Y-78644891D01*
X158589101Y-78463769D01*
X158777931Y-78187408D01*
X158844363Y-77859356D01*
X158844363Y-75827356D01*
X158786697Y-75520888D01*
X158605575Y-75239417D01*
X158329214Y-75050587D01*
X158001162Y-74984155D01*
X156273962Y-74984155D01*
X155967494Y-75041821D01*
X155824562Y-75133795D01*
X155824562Y-74970678D01*
X165189620Y-65605620D01*
X165359337Y-65351620D01*
X165455600Y-65207553D01*
X165549000Y-64738000D01*
X165549000Y-55594240D01*
X166100240Y-55043000D01*
X166448531Y-55043000D01*
X166174565Y-55226058D01*
X165808089Y-55774528D01*
X165679400Y-56421493D01*
X165679400Y-56798507D01*
X165808089Y-57445472D01*
X166174565Y-57993942D01*
X166723035Y-58360418D01*
X167370000Y-58489107D01*
X168016965Y-58360418D01*
X168565435Y-57993942D01*
X168640000Y-57882348D01*
X168714565Y-57993942D01*
X169263035Y-58360418D01*
X169910000Y-58489107D01*
X170556965Y-58360418D01*
X171105435Y-57993942D01*
X171307475Y-57691567D01*
X171547964Y-57960732D01*
X172075209Y-58214709D01*
X172090974Y-58217358D01*
X172323000Y-58096217D01*
X172323000Y-56737000D01*
X172303000Y-56737000D01*
X172303000Y-56483000D01*
X172323000Y-56483000D01*
X172323000Y-56463000D01*
X172577000Y-56463000D01*
X172577000Y-56483000D01*
X172597000Y-56483000D01*
X172597000Y-56737000D01*
X172577000Y-56737000D01*
X172577000Y-58096217D01*
X172809026Y-58217358D01*
X172824791Y-58214709D01*
X173352036Y-57960732D01*
X173592525Y-57691567D01*
X173794565Y-57993942D01*
X174343035Y-58360418D01*
X174990000Y-58489107D01*
X175636965Y-58360418D01*
X176185435Y-57993942D01*
X176260000Y-57882348D01*
X176334565Y-57993942D01*
X176883035Y-58360418D01*
X177530000Y-58489107D01*
X178176965Y-58360418D01*
X178725435Y-57993942D01*
X178800000Y-57882348D01*
X178874565Y-57993942D01*
X179423035Y-58360418D01*
X180070000Y-58489107D01*
X180716965Y-58360418D01*
X181265435Y-57993942D01*
X181340000Y-57882348D01*
X181414565Y-57993942D01*
X181963035Y-58360418D01*
X182610000Y-58489107D01*
X183256965Y-58360418D01*
X183805435Y-57993942D01*
X183880000Y-57882348D01*
X183954565Y-57993942D01*
X184503035Y-58360418D01*
X185150000Y-58489107D01*
X185796965Y-58360418D01*
X186160107Y-58117774D01*
X186221987Y-58213939D01*
X186498348Y-58402769D01*
X186826400Y-58469201D01*
X188553600Y-58469201D01*
X188860068Y-58411535D01*
X189141539Y-58230413D01*
X189330369Y-57954052D01*
X189396801Y-57626000D01*
X189396801Y-55594000D01*
X189339135Y-55287532D01*
X189158013Y-55006061D01*
X188917000Y-54841383D01*
X188917000Y-54794000D01*
X188881683Y-54616448D01*
X188823601Y-54324448D01*
X188557620Y-53926380D01*
X183515620Y-48884380D01*
X183500042Y-48873971D01*
X183117553Y-48618400D01*
X182648000Y-48525000D01*
X163052000Y-48525000D01*
X162582447Y-48618400D01*
X162199958Y-48873971D01*
X162184380Y-48884380D01*
X161090621Y-49978139D01*
X161090976Y-49571953D01*
X160843802Y-48973746D01*
X160386519Y-48515665D01*
X159788744Y-48267447D01*
X159141483Y-48266882D01*
X158543276Y-48514056D01*
X158389901Y-48667164D01*
X158332324Y-48667164D01*
X157862771Y-48760564D01*
X157547324Y-48971339D01*
X157464704Y-49026544D01*
X154156248Y-52335000D01*
X145742000Y-52335000D01*
X145272447Y-52428400D01*
X144938375Y-52651620D01*
X144874380Y-52694380D01*
X143642380Y-53926380D01*
X143376400Y-54324447D01*
X143283000Y-54794000D01*
X143283000Y-55273298D01*
X143240000Y-55337652D01*
X143197000Y-55273298D01*
X143197000Y-51687392D01*
X143355783Y-51528609D01*
X143569849Y-51528796D01*
X144168056Y-51281622D01*
X144626137Y-50824339D01*
X144874355Y-50226564D01*
X144874395Y-50179914D01*
X144874694Y-50179914D01*
X144874694Y-51020474D01*
X144971367Y-51253863D01*
X145149996Y-51432491D01*
X145383385Y-51529164D01*
X146223944Y-51529164D01*
X146382694Y-51370414D01*
X146382694Y-50021164D01*
X145033444Y-50021164D01*
X144874694Y-50179914D01*
X144874395Y-50179914D01*
X144874894Y-49608614D01*
X145033444Y-49767164D01*
X146382694Y-49767164D01*
X146382694Y-48417914D01*
X146636694Y-48417914D01*
X146636694Y-49767164D01*
X146656694Y-49767164D01*
X146656694Y-50021164D01*
X146636694Y-50021164D01*
X146636694Y-51370414D01*
X146795444Y-51529164D01*
X147636003Y-51529164D01*
X147869392Y-51432491D01*
X147958094Y-51343790D01*
X148314738Y-51582092D01*
X149013901Y-51721164D01*
X149085487Y-51721164D01*
X149784650Y-51582092D01*
X150377371Y-51186048D01*
X150420725Y-51121164D01*
X150775902Y-51121164D01*
X151189193Y-51397316D01*
X151811819Y-51521164D01*
X151875569Y-51521164D01*
X152498195Y-51397316D01*
X153026032Y-51044627D01*
X153378721Y-50516790D01*
X153502569Y-49894164D01*
X153378721Y-49271538D01*
X153026032Y-48743701D01*
X152498195Y-48391012D01*
X151875569Y-48267164D01*
X151811819Y-48267164D01*
X151189193Y-48391012D01*
X150775902Y-48667164D01*
X150420725Y-48667164D01*
X150377371Y-48602280D01*
X149784650Y-48206236D01*
X149085487Y-48067164D01*
X149013901Y-48067164D01*
X148314738Y-48206236D01*
X147958094Y-48444538D01*
X147869392Y-48355837D01*
X147636003Y-48259164D01*
X146795444Y-48259164D01*
X146636694Y-48417914D01*
X146382694Y-48417914D01*
X146223944Y-48259164D01*
X145383385Y-48259164D01*
X145149996Y-48355837D01*
X144971367Y-48534465D01*
X144874694Y-48767854D01*
X144874694Y-49578756D01*
X144627746Y-48981096D01*
X144170463Y-48523015D01*
X143572688Y-48274797D01*
X142925427Y-48274232D01*
X142327220Y-48521406D01*
X141869139Y-48978689D01*
X141620921Y-49576464D01*
X141620732Y-49793180D01*
X141102380Y-50311532D01*
X140836400Y-50709599D01*
X140743000Y-51179152D01*
X140743000Y-55273298D01*
X140700000Y-55337652D01*
X140657000Y-55273298D01*
X140657000Y-54794000D01*
X140563600Y-54324447D01*
X140297620Y-53926380D01*
X139065620Y-52694380D01*
X139001625Y-52651620D01*
X138667553Y-52428400D01*
X138198000Y-52335000D01*
X128508240Y-52335000D01*
X128028424Y-51855184D01*
X128028424Y-50870856D01*
X128179923Y-50719621D01*
X128400977Y-50187264D01*
X128651000Y-50187264D01*
X128651000Y-51027824D01*
X128747673Y-51261213D01*
X128926302Y-51439841D01*
X129159691Y-51536514D01*
X130000250Y-51536514D01*
X130159000Y-51377764D01*
X130159000Y-50028514D01*
X128809750Y-50028514D01*
X128651000Y-50187264D01*
X128400977Y-50187264D01*
X128428141Y-50121846D01*
X128428706Y-49474585D01*
X128181532Y-48876378D01*
X128080535Y-48775204D01*
X128651000Y-48775204D01*
X128651000Y-49615764D01*
X128809750Y-49774514D01*
X130159000Y-49774514D01*
X130159000Y-48425264D01*
X130413000Y-48425264D01*
X130413000Y-49774514D01*
X130433000Y-49774514D01*
X130433000Y-50028514D01*
X130413000Y-50028514D01*
X130413000Y-51377764D01*
X130571750Y-51536514D01*
X131412309Y-51536514D01*
X131645698Y-51439841D01*
X131734400Y-51351140D01*
X132091044Y-51589442D01*
X132790207Y-51728514D01*
X132861793Y-51728514D01*
X133560956Y-51589442D01*
X134153677Y-51193398D01*
X134197031Y-51128514D01*
X134559846Y-51128514D01*
X134973137Y-51404666D01*
X135595763Y-51528514D01*
X135659513Y-51528514D01*
X136282139Y-51404666D01*
X136809976Y-51051977D01*
X137162665Y-50524140D01*
X137286513Y-49901514D01*
X137162665Y-49278888D01*
X136809976Y-48751051D01*
X136282139Y-48398362D01*
X135659513Y-48274514D01*
X135595763Y-48274514D01*
X134973137Y-48398362D01*
X134559846Y-48674514D01*
X134197031Y-48674514D01*
X134153677Y-48609630D01*
X133560956Y-48213586D01*
X132861793Y-48074514D01*
X132790207Y-48074514D01*
X132091044Y-48213586D01*
X131734400Y-48451888D01*
X131645698Y-48363187D01*
X131412309Y-48266514D01*
X130571750Y-48266514D01*
X130413000Y-48425264D01*
X130159000Y-48425264D01*
X130000250Y-48266514D01*
X129159691Y-48266514D01*
X128926302Y-48363187D01*
X128747673Y-48541815D01*
X128651000Y-48775204D01*
X128080535Y-48775204D01*
X127724249Y-48418297D01*
X127126474Y-48170079D01*
X126479213Y-48169514D01*
X125881006Y-48416688D01*
X125422925Y-48873971D01*
X125174707Y-49471746D01*
X125174142Y-50119007D01*
X125421316Y-50717214D01*
X125574424Y-50870589D01*
X125574424Y-52363424D01*
X125667824Y-52832977D01*
X125841197Y-53092448D01*
X125933804Y-53231044D01*
X127132380Y-54429620D01*
X127530447Y-54695600D01*
X128000000Y-54789000D01*
X128203379Y-54789000D01*
X128099932Y-54808465D01*
X127818461Y-54989587D01*
X127629631Y-55265948D01*
X127563199Y-55594000D01*
X127563199Y-57626000D01*
X127620865Y-57932468D01*
X127801987Y-58213939D01*
X128043000Y-58378617D01*
X128043000Y-58426000D01*
X128136400Y-58895553D01*
X128257225Y-59076380D01*
X128402380Y-59293620D01*
X129920380Y-60811620D01*
X130318447Y-61077600D01*
X130788000Y-61171000D01*
X132333760Y-61171000D01*
X134571589Y-63408829D01*
X134571194Y-63861717D01*
X134848674Y-64533272D01*
X135362026Y-65047520D01*
X136033095Y-65326172D01*
X136759717Y-65326806D01*
X137431272Y-65049326D01*
X137945520Y-64535974D01*
X138224172Y-63864905D01*
X138224806Y-63138283D01*
X137947326Y-62466728D01*
X137433974Y-61952480D01*
X136762905Y-61673828D01*
X136306670Y-61673430D01*
X133709620Y-59076380D01*
X133438993Y-58895553D01*
X133311553Y-58810400D01*
X132842000Y-58717000D01*
X131296240Y-58717000D01*
X130757306Y-58178066D01*
X130798938Y-58117136D01*
X131163035Y-58360418D01*
X131810000Y-58489107D01*
X132456965Y-58360418D01*
X133005435Y-57993942D01*
X133080000Y-57882348D01*
X133154565Y-57993942D01*
X133703035Y-58360418D01*
X134350000Y-58489107D01*
X134996965Y-58360418D01*
X135545435Y-57993942D01*
X135620000Y-57882348D01*
X135694565Y-57993942D01*
X136243035Y-58360418D01*
X136890000Y-58489107D01*
X137536965Y-58360418D01*
X138085435Y-57993942D01*
X138160000Y-57882348D01*
X138234565Y-57993942D01*
X138783035Y-58360418D01*
X139430000Y-58489107D01*
X140076965Y-58360418D01*
X140625435Y-57993942D01*
X140700000Y-57882348D01*
X140774565Y-57993942D01*
X141323035Y-58360418D01*
X141970000Y-58489107D01*
X142616965Y-58360418D01*
X143165435Y-57993942D01*
X143240000Y-57882348D01*
X143314565Y-57993942D01*
X143863035Y-58360418D01*
X144510000Y-58489107D01*
X145156965Y-58360418D01*
X145705435Y-57993942D01*
X145780000Y-57882348D01*
X145854565Y-57993942D01*
X146403035Y-58360418D01*
X147050000Y-58489107D01*
X147696965Y-58360418D01*
X148245435Y-57993942D01*
X148320000Y-57882348D01*
X148394565Y-57993942D01*
X148943035Y-58360418D01*
X149590000Y-58489107D01*
X150236965Y-58360418D01*
X150785435Y-57993942D01*
X150860000Y-57882348D01*
X150934565Y-57993942D01*
X151483035Y-58360418D01*
X152130000Y-58489107D01*
X152776965Y-58360418D01*
X153325435Y-57993942D01*
X153400000Y-57882348D01*
X153474565Y-57993942D01*
X154023035Y-58360418D01*
X154670000Y-58489107D01*
X155316965Y-58360418D01*
X155865435Y-57993942D01*
X155940000Y-57882348D01*
X156014565Y-57993942D01*
X156563035Y-58360418D01*
X157210000Y-58489107D01*
X157856965Y-58360418D01*
X158405435Y-57993942D01*
X158523000Y-57817994D01*
X158523000Y-57879760D01*
X157209760Y-59193000D01*
X147050000Y-59193000D01*
X146580448Y-59286399D01*
X146182380Y-59552380D01*
X139556760Y-66178000D01*
X128635000Y-66178000D01*
X128165448Y-66271399D01*
X127767380Y-66537380D01*
X120782380Y-73522380D01*
X120516400Y-73920447D01*
X120423000Y-74390000D01*
X120423000Y-74663186D01*
X120350562Y-75027356D01*
X120350562Y-75506654D01*
X120307562Y-75571008D01*
X120232997Y-75459414D01*
X119684527Y-75092938D01*
X119037562Y-74964249D01*
X118390597Y-75092938D01*
X117842127Y-75459414D01*
X117475651Y-76007884D01*
X117346962Y-76654849D01*
X117346962Y-77031863D01*
X117475651Y-77678828D01*
X117842127Y-78227298D01*
X118390597Y-78593774D01*
X119037562Y-78722463D01*
X119684527Y-78593774D01*
X120232997Y-78227298D01*
X120307562Y-78115704D01*
X120350562Y-78180058D01*
X120350562Y-80263198D01*
X117773066Y-82840694D01*
X117549052Y-82687631D01*
X117221000Y-82621199D01*
X115189000Y-82621199D01*
X114882532Y-82678865D01*
X114601061Y-82859987D01*
X114412231Y-83136348D01*
X114345799Y-83464400D01*
X114345799Y-85191600D01*
X114403465Y-85498068D01*
X114584587Y-85779539D01*
X114855637Y-85964740D01*
X114854268Y-85965964D01*
X114600291Y-86493209D01*
X114597642Y-86508974D01*
X114718783Y-86741000D01*
X116078000Y-86741000D01*
X116078000Y-86721000D01*
X116332000Y-86721000D01*
X116332000Y-86741000D01*
X117691217Y-86741000D01*
X117812358Y-86508974D01*
X117809709Y-86493209D01*
X117555732Y-85965964D01*
X117551167Y-85961885D01*
X117808939Y-85796013D01*
X117973617Y-85555000D01*
X118021000Y-85555000D01*
X118490553Y-85461600D01*
X118888620Y-85195620D01*
X122445182Y-81639058D01*
X122711162Y-81240991D01*
X122804562Y-80771438D01*
X122804562Y-78180058D01*
X122847562Y-78115704D01*
X122922127Y-78227298D01*
X123470597Y-78593774D01*
X124117562Y-78722463D01*
X124764527Y-78593774D01*
X125312997Y-78227298D01*
X125515037Y-77924923D01*
X125755526Y-78194088D01*
X126282771Y-78448065D01*
X126298536Y-78450714D01*
X126530562Y-78329573D01*
X126530562Y-76970356D01*
X126510562Y-76970356D01*
X126510562Y-76716356D01*
X126530562Y-76716356D01*
X126530562Y-75357139D01*
X126298536Y-75235998D01*
X126282771Y-75238647D01*
X125755526Y-75492624D01*
X125515037Y-75761789D01*
X125312997Y-75459414D01*
X124764527Y-75092938D01*
X124117562Y-74964249D01*
X123470597Y-75092938D01*
X122922127Y-75459414D01*
X122847562Y-75571008D01*
X122804562Y-75506654D01*
X122804562Y-75319088D01*
X122877000Y-74954918D01*
X122877000Y-74898240D01*
X129143240Y-68632000D01*
X140065000Y-68632000D01*
X140534553Y-68538600D01*
X140932620Y-68272620D01*
X147558240Y-61647000D01*
X157718000Y-61647000D01*
X158187553Y-61553600D01*
X158585620Y-61287620D01*
X160617620Y-59255620D01*
X160809000Y-58969199D01*
X160809000Y-63975760D01*
X151262380Y-73522380D01*
X150996400Y-73920447D01*
X150903000Y-74390000D01*
X150903000Y-74663186D01*
X150830562Y-75027356D01*
X150830562Y-75506654D01*
X150787562Y-75571008D01*
X150712997Y-75459414D01*
X150164527Y-75092938D01*
X149517562Y-74964249D01*
X148870597Y-75092938D01*
X148322127Y-75459414D01*
X148247562Y-75571008D01*
X148172997Y-75459414D01*
X147624527Y-75092938D01*
X146977562Y-74964249D01*
X146330597Y-75092938D01*
X145782127Y-75459414D01*
X145707562Y-75571008D01*
X145632997Y-75459414D01*
X145084527Y-75092938D01*
X144437562Y-74964249D01*
X143790597Y-75092938D01*
X143242127Y-75459414D01*
X143167562Y-75571008D01*
X143092997Y-75459414D01*
X142544527Y-75092938D01*
X141897562Y-74964249D01*
X141250597Y-75092938D01*
X140702127Y-75459414D01*
X140627562Y-75571008D01*
X140552997Y-75459414D01*
X140004527Y-75092938D01*
X139357562Y-74964249D01*
X138710597Y-75092938D01*
X138162127Y-75459414D01*
X138087562Y-75571008D01*
X138012997Y-75459414D01*
X137464527Y-75092938D01*
X136817562Y-74964249D01*
X136170597Y-75092938D01*
X135622127Y-75459414D01*
X135547562Y-75571008D01*
X135472997Y-75459414D01*
X134924527Y-75092938D01*
X134277562Y-74964249D01*
X133630597Y-75092938D01*
X133082127Y-75459414D01*
X133007562Y-75571008D01*
X132964562Y-75506654D01*
X132964562Y-72347000D01*
X135042064Y-72347000D01*
X135362026Y-72667520D01*
X136033095Y-72946172D01*
X136759717Y-72946806D01*
X137431272Y-72669326D01*
X137945520Y-72155974D01*
X138224172Y-71484905D01*
X138224806Y-70758283D01*
X137947326Y-70086728D01*
X137433974Y-69572480D01*
X136762905Y-69293828D01*
X136036283Y-69293194D01*
X135364728Y-69570674D01*
X135041839Y-69893000D01*
X132292936Y-69893000D01*
X131972974Y-69572480D01*
X131301905Y-69293828D01*
X130575283Y-69293194D01*
X129903728Y-69570674D01*
X129389480Y-70084026D01*
X129110828Y-70755095D01*
X129110194Y-71481717D01*
X129387674Y-72153272D01*
X129901026Y-72667520D01*
X130510562Y-72920621D01*
X130510562Y-75506654D01*
X130467562Y-75571008D01*
X130392997Y-75459414D01*
X129844527Y-75092938D01*
X129197562Y-74964249D01*
X128550597Y-75092938D01*
X128002127Y-75459414D01*
X127800087Y-75761789D01*
X127559598Y-75492624D01*
X127032353Y-75238647D01*
X127016588Y-75235998D01*
X126784562Y-75357139D01*
X126784562Y-76716356D01*
X126804562Y-76716356D01*
X126804562Y-76970356D01*
X126784562Y-76970356D01*
X126784562Y-78329573D01*
X127016588Y-78450714D01*
X127032353Y-78448065D01*
X127559598Y-78194088D01*
X127800087Y-77924923D01*
X128002127Y-78227298D01*
X128550597Y-78593774D01*
X129197562Y-78722463D01*
X129844527Y-78593774D01*
X130392997Y-78227298D01*
X130467562Y-78115704D01*
X130542127Y-78227298D01*
X131090597Y-78593774D01*
X131737562Y-78722463D01*
X132384527Y-78593774D01*
X132932997Y-78227298D01*
X133007562Y-78115704D01*
X133082127Y-78227298D01*
X133630597Y-78593774D01*
X134277562Y-78722463D01*
X134924527Y-78593774D01*
X135472997Y-78227298D01*
X135547562Y-78115704D01*
X135622127Y-78227298D01*
X136170597Y-78593774D01*
X136817562Y-78722463D01*
X137464527Y-78593774D01*
X138012997Y-78227298D01*
X138087562Y-78115704D01*
X138118970Y-78162708D01*
X128100678Y-88181000D01*
X117541702Y-88181000D01*
X117286567Y-88010525D01*
X117555732Y-87770036D01*
X117809709Y-87242791D01*
X117812358Y-87227026D01*
X117691217Y-86995000D01*
X116332000Y-86995000D01*
X116332000Y-87015000D01*
X116078000Y-87015000D01*
X116078000Y-86995000D01*
X114718783Y-86995000D01*
X114597642Y-87227026D01*
X114600291Y-87242791D01*
X114854268Y-87770036D01*
X115123433Y-88010525D01*
X114821058Y-88212565D01*
X114454582Y-88761035D01*
X114325893Y-89408000D01*
X111392000Y-89408000D01*
X111392000Y-64652163D01*
X129964443Y-64652163D01*
X130063042Y-64918965D01*
X130672582Y-65145401D01*
X131322377Y-65121341D01*
X131810958Y-64918965D01*
X131909557Y-64652163D01*
X130937000Y-63679605D01*
X129964443Y-64652163D01*
X111392000Y-64652163D01*
X111392000Y-63235582D01*
X129291599Y-63235582D01*
X129315659Y-63885377D01*
X129518035Y-64373958D01*
X129784837Y-64472557D01*
X130757395Y-63500000D01*
X131116605Y-63500000D01*
X132089163Y-64472557D01*
X132355965Y-64373958D01*
X132582401Y-63764418D01*
X132558341Y-63114623D01*
X132355965Y-62626042D01*
X132089163Y-62527443D01*
X131116605Y-63500000D01*
X130757395Y-63500000D01*
X129784837Y-62527443D01*
X129518035Y-62626042D01*
X129291599Y-63235582D01*
X111392000Y-63235582D01*
X111392000Y-62347837D01*
X129964443Y-62347837D01*
X130937000Y-63320395D01*
X131909557Y-62347837D01*
X131810958Y-62081035D01*
X131201418Y-61854599D01*
X130551623Y-61878659D01*
X130063042Y-62081035D01*
X129964443Y-62347837D01*
X111392000Y-62347837D01*
X111392000Y-50082546D01*
X112212424Y-50082546D01*
X112212424Y-50923106D01*
X112309097Y-51156495D01*
X112487726Y-51335123D01*
X112721115Y-51431796D01*
X113561674Y-51431796D01*
X113720424Y-51273046D01*
X113720424Y-49923796D01*
X112371174Y-49923796D01*
X112212424Y-50082546D01*
X111392000Y-50082546D01*
X111392000Y-48670486D01*
X112212424Y-48670486D01*
X112212424Y-49511046D01*
X112371174Y-49669796D01*
X113720424Y-49669796D01*
X113720424Y-48320546D01*
X113974424Y-48320546D01*
X113974424Y-49669796D01*
X113994424Y-49669796D01*
X113994424Y-49923796D01*
X113974424Y-49923796D01*
X113974424Y-51273046D01*
X114133174Y-51431796D01*
X114973733Y-51431796D01*
X115207122Y-51335123D01*
X115295824Y-51246422D01*
X115652468Y-51484724D01*
X116351631Y-51623796D01*
X116423217Y-51623796D01*
X117122380Y-51484724D01*
X117715101Y-51088680D01*
X117758455Y-51023796D01*
X118113632Y-51023796D01*
X118526923Y-51299948D01*
X119149549Y-51423796D01*
X119213299Y-51423796D01*
X119835925Y-51299948D01*
X120363762Y-50947259D01*
X120716451Y-50419422D01*
X120840299Y-49796796D01*
X120716451Y-49174170D01*
X120363762Y-48646333D01*
X119835925Y-48293644D01*
X119213299Y-48169796D01*
X119149549Y-48169796D01*
X118526923Y-48293644D01*
X118113632Y-48569796D01*
X117758455Y-48569796D01*
X117715101Y-48504912D01*
X117122380Y-48108868D01*
X116423217Y-47969796D01*
X116351631Y-47969796D01*
X115652468Y-48108868D01*
X115295824Y-48347170D01*
X115207122Y-48258469D01*
X114973733Y-48161796D01*
X114133174Y-48161796D01*
X113974424Y-48320546D01*
X113720424Y-48320546D01*
X113561674Y-48161796D01*
X112721115Y-48161796D01*
X112487726Y-48258469D01*
X112309097Y-48437097D01*
X112212424Y-48670486D01*
X111392000Y-48670486D01*
X111392000Y-45987000D01*
X195453000Y-45987000D01*
X195453000Y-101473000D01*
X195453000Y-101473000D01*
G37*
X195453000Y-101473000D02*
X111392000Y-101473000D01*
X111392000Y-89408000D01*
X114325893Y-89408000D01*
X114454582Y-90054965D01*
X114821058Y-90603435D01*
X115369528Y-90969911D01*
X116016493Y-91098600D01*
X116393507Y-91098600D01*
X117040472Y-90969911D01*
X117541702Y-90635000D01*
X128608918Y-90635000D01*
X129078471Y-90541600D01*
X129476538Y-90275620D01*
X140225182Y-79526976D01*
X140491162Y-79128909D01*
X140584562Y-78659356D01*
X140584562Y-78180058D01*
X140627562Y-78115704D01*
X140702127Y-78227298D01*
X141250597Y-78593774D01*
X141897562Y-78722463D01*
X142544527Y-78593774D01*
X143092997Y-78227298D01*
X143167562Y-78115704D01*
X143242127Y-78227298D01*
X143790597Y-78593774D01*
X144437562Y-78722463D01*
X145084527Y-78593774D01*
X145632997Y-78227298D01*
X145707562Y-78115704D01*
X145782127Y-78227298D01*
X146330597Y-78593774D01*
X146977562Y-78722463D01*
X147624527Y-78593774D01*
X148172997Y-78227298D01*
X148247562Y-78115704D01*
X148322127Y-78227298D01*
X148870597Y-78593774D01*
X149517562Y-78722463D01*
X150164527Y-78593774D01*
X150712997Y-78227298D01*
X150787562Y-78115704D01*
X150862127Y-78227298D01*
X151410597Y-78593774D01*
X152057562Y-78722463D01*
X152704527Y-78593774D01*
X153252997Y-78227298D01*
X153327562Y-78115704D01*
X153402127Y-78227298D01*
X153950597Y-78593774D01*
X154597562Y-78722463D01*
X155244527Y-78593774D01*
X155607669Y-78351130D01*
X155669549Y-78447295D01*
X155945910Y-78636125D01*
X156273962Y-78702557D01*
X158001162Y-78702557D01*
X158307630Y-78644891D01*
X158589101Y-78463769D01*
X158777931Y-78187408D01*
X158844363Y-77859356D01*
X158844363Y-75827356D01*
X158786697Y-75520888D01*
X158605575Y-75239417D01*
X158329214Y-75050587D01*
X158001162Y-74984155D01*
X156273962Y-74984155D01*
X155967494Y-75041821D01*
X155824562Y-75133795D01*
X155824562Y-74970678D01*
X165189620Y-65605620D01*
X165359337Y-65351620D01*
X165455600Y-65207553D01*
X165549000Y-64738000D01*
X165549000Y-55594240D01*
X166100240Y-55043000D01*
X166448531Y-55043000D01*
X166174565Y-55226058D01*
X165808089Y-55774528D01*
X165679400Y-56421493D01*
X165679400Y-56798507D01*
X165808089Y-57445472D01*
X166174565Y-57993942D01*
X166723035Y-58360418D01*
X167370000Y-58489107D01*
X168016965Y-58360418D01*
X168565435Y-57993942D01*
X168640000Y-57882348D01*
X168714565Y-57993942D01*
X169263035Y-58360418D01*
X169910000Y-58489107D01*
X170556965Y-58360418D01*
X171105435Y-57993942D01*
X171307475Y-57691567D01*
X171547964Y-57960732D01*
X172075209Y-58214709D01*
X172090974Y-58217358D01*
X172323000Y-58096217D01*
X172323000Y-56737000D01*
X172303000Y-56737000D01*
X172303000Y-56483000D01*
X172323000Y-56483000D01*
X172323000Y-56463000D01*
X172577000Y-56463000D01*
X172577000Y-56483000D01*
X172597000Y-56483000D01*
X172597000Y-56737000D01*
X172577000Y-56737000D01*
X172577000Y-58096217D01*
X172809026Y-58217358D01*
X172824791Y-58214709D01*
X173352036Y-57960732D01*
X173592525Y-57691567D01*
X173794565Y-57993942D01*
X174343035Y-58360418D01*
X174990000Y-58489107D01*
X175636965Y-58360418D01*
X176185435Y-57993942D01*
X176260000Y-57882348D01*
X176334565Y-57993942D01*
X176883035Y-58360418D01*
X177530000Y-58489107D01*
X178176965Y-58360418D01*
X178725435Y-57993942D01*
X178800000Y-57882348D01*
X178874565Y-57993942D01*
X179423035Y-58360418D01*
X180070000Y-58489107D01*
X180716965Y-58360418D01*
X181265435Y-57993942D01*
X181340000Y-57882348D01*
X181414565Y-57993942D01*
X181963035Y-58360418D01*
X182610000Y-58489107D01*
X183256965Y-58360418D01*
X183805435Y-57993942D01*
X183880000Y-57882348D01*
X183954565Y-57993942D01*
X184503035Y-58360418D01*
X185150000Y-58489107D01*
X185796965Y-58360418D01*
X186160107Y-58117774D01*
X186221987Y-58213939D01*
X186498348Y-58402769D01*
X186826400Y-58469201D01*
X188553600Y-58469201D01*
X188860068Y-58411535D01*
X189141539Y-58230413D01*
X189330369Y-57954052D01*
X189396801Y-57626000D01*
X189396801Y-55594000D01*
X189339135Y-55287532D01*
X189158013Y-55006061D01*
X188917000Y-54841383D01*
X188917000Y-54794000D01*
X188881683Y-54616448D01*
X188823601Y-54324448D01*
X188557620Y-53926380D01*
X183515620Y-48884380D01*
X183500042Y-48873971D01*
X183117553Y-48618400D01*
X182648000Y-48525000D01*
X163052000Y-48525000D01*
X162582447Y-48618400D01*
X162199958Y-48873971D01*
X162184380Y-48884380D01*
X161090621Y-49978139D01*
X161090976Y-49571953D01*
X160843802Y-48973746D01*
X160386519Y-48515665D01*
X159788744Y-48267447D01*
X159141483Y-48266882D01*
X158543276Y-48514056D01*
X158389901Y-48667164D01*
X158332324Y-48667164D01*
X157862771Y-48760564D01*
X157547324Y-48971339D01*
X157464704Y-49026544D01*
X154156248Y-52335000D01*
X145742000Y-52335000D01*
X145272447Y-52428400D01*
X144938375Y-52651620D01*
X144874380Y-52694380D01*
X143642380Y-53926380D01*
X143376400Y-54324447D01*
X143283000Y-54794000D01*
X143283000Y-55273298D01*
X143240000Y-55337652D01*
X143197000Y-55273298D01*
X143197000Y-51687392D01*
X143355783Y-51528609D01*
X143569849Y-51528796D01*
X144168056Y-51281622D01*
X144626137Y-50824339D01*
X144874355Y-50226564D01*
X144874395Y-50179914D01*
X144874694Y-50179914D01*
X144874694Y-51020474D01*
X144971367Y-51253863D01*
X145149996Y-51432491D01*
X145383385Y-51529164D01*
X146223944Y-51529164D01*
X146382694Y-51370414D01*
X146382694Y-50021164D01*
X145033444Y-50021164D01*
X144874694Y-50179914D01*
X144874395Y-50179914D01*
X144874894Y-49608614D01*
X145033444Y-49767164D01*
X146382694Y-49767164D01*
X146382694Y-48417914D01*
X146636694Y-48417914D01*
X146636694Y-49767164D01*
X146656694Y-49767164D01*
X146656694Y-50021164D01*
X146636694Y-50021164D01*
X146636694Y-51370414D01*
X146795444Y-51529164D01*
X147636003Y-51529164D01*
X147869392Y-51432491D01*
X147958094Y-51343790D01*
X148314738Y-51582092D01*
X149013901Y-51721164D01*
X149085487Y-51721164D01*
X149784650Y-51582092D01*
X150377371Y-51186048D01*
X150420725Y-51121164D01*
X150775902Y-51121164D01*
X151189193Y-51397316D01*
X151811819Y-51521164D01*
X151875569Y-51521164D01*
X152498195Y-51397316D01*
X153026032Y-51044627D01*
X153378721Y-50516790D01*
X153502569Y-49894164D01*
X153378721Y-49271538D01*
X153026032Y-48743701D01*
X152498195Y-48391012D01*
X151875569Y-48267164D01*
X151811819Y-48267164D01*
X151189193Y-48391012D01*
X150775902Y-48667164D01*
X150420725Y-48667164D01*
X150377371Y-48602280D01*
X149784650Y-48206236D01*
X149085487Y-48067164D01*
X149013901Y-48067164D01*
X148314738Y-48206236D01*
X147958094Y-48444538D01*
X147869392Y-48355837D01*
X147636003Y-48259164D01*
X146795444Y-48259164D01*
X146636694Y-48417914D01*
X146382694Y-48417914D01*
X146223944Y-48259164D01*
X145383385Y-48259164D01*
X145149996Y-48355837D01*
X144971367Y-48534465D01*
X144874694Y-48767854D01*
X144874694Y-49578756D01*
X144627746Y-48981096D01*
X144170463Y-48523015D01*
X143572688Y-48274797D01*
X142925427Y-48274232D01*
X142327220Y-48521406D01*
X141869139Y-48978689D01*
X141620921Y-49576464D01*
X141620732Y-49793180D01*
X141102380Y-50311532D01*
X140836400Y-50709599D01*
X140743000Y-51179152D01*
X140743000Y-55273298D01*
X140700000Y-55337652D01*
X140657000Y-55273298D01*
X140657000Y-54794000D01*
X140563600Y-54324447D01*
X140297620Y-53926380D01*
X139065620Y-52694380D01*
X139001625Y-52651620D01*
X138667553Y-52428400D01*
X138198000Y-52335000D01*
X128508240Y-52335000D01*
X128028424Y-51855184D01*
X128028424Y-50870856D01*
X128179923Y-50719621D01*
X128400977Y-50187264D01*
X128651000Y-50187264D01*
X128651000Y-51027824D01*
X128747673Y-51261213D01*
X128926302Y-51439841D01*
X129159691Y-51536514D01*
X130000250Y-51536514D01*
X130159000Y-51377764D01*
X130159000Y-50028514D01*
X128809750Y-50028514D01*
X128651000Y-50187264D01*
X128400977Y-50187264D01*
X128428141Y-50121846D01*
X128428706Y-49474585D01*
X128181532Y-48876378D01*
X128080535Y-48775204D01*
X128651000Y-48775204D01*
X128651000Y-49615764D01*
X128809750Y-49774514D01*
X130159000Y-49774514D01*
X130159000Y-48425264D01*
X130413000Y-48425264D01*
X130413000Y-49774514D01*
X130433000Y-49774514D01*
X130433000Y-50028514D01*
X130413000Y-50028514D01*
X130413000Y-51377764D01*
X130571750Y-51536514D01*
X131412309Y-51536514D01*
X131645698Y-51439841D01*
X131734400Y-51351140D01*
X132091044Y-51589442D01*
X132790207Y-51728514D01*
X132861793Y-51728514D01*
X133560956Y-51589442D01*
X134153677Y-51193398D01*
X134197031Y-51128514D01*
X134559846Y-51128514D01*
X134973137Y-51404666D01*
X135595763Y-51528514D01*
X135659513Y-51528514D01*
X136282139Y-51404666D01*
X136809976Y-51051977D01*
X137162665Y-50524140D01*
X137286513Y-49901514D01*
X137162665Y-49278888D01*
X136809976Y-48751051D01*
X136282139Y-48398362D01*
X135659513Y-48274514D01*
X135595763Y-48274514D01*
X134973137Y-48398362D01*
X134559846Y-48674514D01*
X134197031Y-48674514D01*
X134153677Y-48609630D01*
X133560956Y-48213586D01*
X132861793Y-48074514D01*
X132790207Y-48074514D01*
X132091044Y-48213586D01*
X131734400Y-48451888D01*
X131645698Y-48363187D01*
X131412309Y-48266514D01*
X130571750Y-48266514D01*
X130413000Y-48425264D01*
X130159000Y-48425264D01*
X130000250Y-48266514D01*
X129159691Y-48266514D01*
X128926302Y-48363187D01*
X128747673Y-48541815D01*
X128651000Y-48775204D01*
X128080535Y-48775204D01*
X127724249Y-48418297D01*
X127126474Y-48170079D01*
X126479213Y-48169514D01*
X125881006Y-48416688D01*
X125422925Y-48873971D01*
X125174707Y-49471746D01*
X125174142Y-50119007D01*
X125421316Y-50717214D01*
X125574424Y-50870589D01*
X125574424Y-52363424D01*
X125667824Y-52832977D01*
X125841197Y-53092448D01*
X125933804Y-53231044D01*
X127132380Y-54429620D01*
X127530447Y-54695600D01*
X128000000Y-54789000D01*
X128203379Y-54789000D01*
X128099932Y-54808465D01*
X127818461Y-54989587D01*
X127629631Y-55265948D01*
X127563199Y-55594000D01*
X127563199Y-57626000D01*
X127620865Y-57932468D01*
X127801987Y-58213939D01*
X128043000Y-58378617D01*
X128043000Y-58426000D01*
X128136400Y-58895553D01*
X128257225Y-59076380D01*
X128402380Y-59293620D01*
X129920380Y-60811620D01*
X130318447Y-61077600D01*
X130788000Y-61171000D01*
X132333760Y-61171000D01*
X134571589Y-63408829D01*
X134571194Y-63861717D01*
X134848674Y-64533272D01*
X135362026Y-65047520D01*
X136033095Y-65326172D01*
X136759717Y-65326806D01*
X137431272Y-65049326D01*
X137945520Y-64535974D01*
X138224172Y-63864905D01*
X138224806Y-63138283D01*
X137947326Y-62466728D01*
X137433974Y-61952480D01*
X136762905Y-61673828D01*
X136306670Y-61673430D01*
X133709620Y-59076380D01*
X133438993Y-58895553D01*
X133311553Y-58810400D01*
X132842000Y-58717000D01*
X131296240Y-58717000D01*
X130757306Y-58178066D01*
X130798938Y-58117136D01*
X131163035Y-58360418D01*
X131810000Y-58489107D01*
X132456965Y-58360418D01*
X133005435Y-57993942D01*
X133080000Y-57882348D01*
X133154565Y-57993942D01*
X133703035Y-58360418D01*
X134350000Y-58489107D01*
X134996965Y-58360418D01*
X135545435Y-57993942D01*
X135620000Y-57882348D01*
X135694565Y-57993942D01*
X136243035Y-58360418D01*
X136890000Y-58489107D01*
X137536965Y-58360418D01*
X138085435Y-57993942D01*
X138160000Y-57882348D01*
X138234565Y-57993942D01*
X138783035Y-58360418D01*
X139430000Y-58489107D01*
X140076965Y-58360418D01*
X140625435Y-57993942D01*
X140700000Y-57882348D01*
X140774565Y-57993942D01*
X141323035Y-58360418D01*
X141970000Y-58489107D01*
X142616965Y-58360418D01*
X143165435Y-57993942D01*
X143240000Y-57882348D01*
X143314565Y-57993942D01*
X143863035Y-58360418D01*
X144510000Y-58489107D01*
X145156965Y-58360418D01*
X145705435Y-57993942D01*
X145780000Y-57882348D01*
X145854565Y-57993942D01*
X146403035Y-58360418D01*
X147050000Y-58489107D01*
X147696965Y-58360418D01*
X148245435Y-57993942D01*
X148320000Y-57882348D01*
X148394565Y-57993942D01*
X148943035Y-58360418D01*
X149590000Y-58489107D01*
X150236965Y-58360418D01*
X150785435Y-57993942D01*
X150860000Y-57882348D01*
X150934565Y-57993942D01*
X151483035Y-58360418D01*
X152130000Y-58489107D01*
X152776965Y-58360418D01*
X153325435Y-57993942D01*
X153400000Y-57882348D01*
X153474565Y-57993942D01*
X154023035Y-58360418D01*
X154670000Y-58489107D01*
X155316965Y-58360418D01*
X155865435Y-57993942D01*
X155940000Y-57882348D01*
X156014565Y-57993942D01*
X156563035Y-58360418D01*
X157210000Y-58489107D01*
X157856965Y-58360418D01*
X158405435Y-57993942D01*
X158523000Y-57817994D01*
X158523000Y-57879760D01*
X157209760Y-59193000D01*
X147050000Y-59193000D01*
X146580448Y-59286399D01*
X146182380Y-59552380D01*
X139556760Y-66178000D01*
X128635000Y-66178000D01*
X128165448Y-66271399D01*
X127767380Y-66537380D01*
X120782380Y-73522380D01*
X120516400Y-73920447D01*
X120423000Y-74390000D01*
X120423000Y-74663186D01*
X120350562Y-75027356D01*
X120350562Y-75506654D01*
X120307562Y-75571008D01*
X120232997Y-75459414D01*
X119684527Y-75092938D01*
X119037562Y-74964249D01*
X118390597Y-75092938D01*
X117842127Y-75459414D01*
X117475651Y-76007884D01*
X117346962Y-76654849D01*
X117346962Y-77031863D01*
X117475651Y-77678828D01*
X117842127Y-78227298D01*
X118390597Y-78593774D01*
X119037562Y-78722463D01*
X119684527Y-78593774D01*
X120232997Y-78227298D01*
X120307562Y-78115704D01*
X120350562Y-78180058D01*
X120350562Y-80263198D01*
X117773066Y-82840694D01*
X117549052Y-82687631D01*
X117221000Y-82621199D01*
X115189000Y-82621199D01*
X114882532Y-82678865D01*
X114601061Y-82859987D01*
X114412231Y-83136348D01*
X114345799Y-83464400D01*
X114345799Y-85191600D01*
X114403465Y-85498068D01*
X114584587Y-85779539D01*
X114855637Y-85964740D01*
X114854268Y-85965964D01*
X114600291Y-86493209D01*
X114597642Y-86508974D01*
X114718783Y-86741000D01*
X116078000Y-86741000D01*
X116078000Y-86721000D01*
X116332000Y-86721000D01*
X116332000Y-86741000D01*
X117691217Y-86741000D01*
X117812358Y-86508974D01*
X117809709Y-86493209D01*
X117555732Y-85965964D01*
X117551167Y-85961885D01*
X117808939Y-85796013D01*
X117973617Y-85555000D01*
X118021000Y-85555000D01*
X118490553Y-85461600D01*
X118888620Y-85195620D01*
X122445182Y-81639058D01*
X122711162Y-81240991D01*
X122804562Y-80771438D01*
X122804562Y-78180058D01*
X122847562Y-78115704D01*
X122922127Y-78227298D01*
X123470597Y-78593774D01*
X124117562Y-78722463D01*
X124764527Y-78593774D01*
X125312997Y-78227298D01*
X125515037Y-77924923D01*
X125755526Y-78194088D01*
X126282771Y-78448065D01*
X126298536Y-78450714D01*
X126530562Y-78329573D01*
X126530562Y-76970356D01*
X126510562Y-76970356D01*
X126510562Y-76716356D01*
X126530562Y-76716356D01*
X126530562Y-75357139D01*
X126298536Y-75235998D01*
X126282771Y-75238647D01*
X125755526Y-75492624D01*
X125515037Y-75761789D01*
X125312997Y-75459414D01*
X124764527Y-75092938D01*
X124117562Y-74964249D01*
X123470597Y-75092938D01*
X122922127Y-75459414D01*
X122847562Y-75571008D01*
X122804562Y-75506654D01*
X122804562Y-75319088D01*
X122877000Y-74954918D01*
X122877000Y-74898240D01*
X129143240Y-68632000D01*
X140065000Y-68632000D01*
X140534553Y-68538600D01*
X140932620Y-68272620D01*
X147558240Y-61647000D01*
X157718000Y-61647000D01*
X158187553Y-61553600D01*
X158585620Y-61287620D01*
X160617620Y-59255620D01*
X160809000Y-58969199D01*
X160809000Y-63975760D01*
X151262380Y-73522380D01*
X150996400Y-73920447D01*
X150903000Y-74390000D01*
X150903000Y-74663186D01*
X150830562Y-75027356D01*
X150830562Y-75506654D01*
X150787562Y-75571008D01*
X150712997Y-75459414D01*
X150164527Y-75092938D01*
X149517562Y-74964249D01*
X148870597Y-75092938D01*
X148322127Y-75459414D01*
X148247562Y-75571008D01*
X148172997Y-75459414D01*
X147624527Y-75092938D01*
X146977562Y-74964249D01*
X146330597Y-75092938D01*
X145782127Y-75459414D01*
X145707562Y-75571008D01*
X145632997Y-75459414D01*
X145084527Y-75092938D01*
X144437562Y-74964249D01*
X143790597Y-75092938D01*
X143242127Y-75459414D01*
X143167562Y-75571008D01*
X143092997Y-75459414D01*
X142544527Y-75092938D01*
X141897562Y-74964249D01*
X141250597Y-75092938D01*
X140702127Y-75459414D01*
X140627562Y-75571008D01*
X140552997Y-75459414D01*
X140004527Y-75092938D01*
X139357562Y-74964249D01*
X138710597Y-75092938D01*
X138162127Y-75459414D01*
X138087562Y-75571008D01*
X138012997Y-75459414D01*
X137464527Y-75092938D01*
X136817562Y-74964249D01*
X136170597Y-75092938D01*
X135622127Y-75459414D01*
X135547562Y-75571008D01*
X135472997Y-75459414D01*
X134924527Y-75092938D01*
X134277562Y-74964249D01*
X133630597Y-75092938D01*
X133082127Y-75459414D01*
X133007562Y-75571008D01*
X132964562Y-75506654D01*
X132964562Y-72347000D01*
X135042064Y-72347000D01*
X135362026Y-72667520D01*
X136033095Y-72946172D01*
X136759717Y-72946806D01*
X137431272Y-72669326D01*
X137945520Y-72155974D01*
X138224172Y-71484905D01*
X138224806Y-70758283D01*
X137947326Y-70086728D01*
X137433974Y-69572480D01*
X136762905Y-69293828D01*
X136036283Y-69293194D01*
X135364728Y-69570674D01*
X135041839Y-69893000D01*
X132292936Y-69893000D01*
X131972974Y-69572480D01*
X131301905Y-69293828D01*
X130575283Y-69293194D01*
X129903728Y-69570674D01*
X129389480Y-70084026D01*
X129110828Y-70755095D01*
X129110194Y-71481717D01*
X129387674Y-72153272D01*
X129901026Y-72667520D01*
X130510562Y-72920621D01*
X130510562Y-75506654D01*
X130467562Y-75571008D01*
X130392997Y-75459414D01*
X129844527Y-75092938D01*
X129197562Y-74964249D01*
X128550597Y-75092938D01*
X128002127Y-75459414D01*
X127800087Y-75761789D01*
X127559598Y-75492624D01*
X127032353Y-75238647D01*
X127016588Y-75235998D01*
X126784562Y-75357139D01*
X126784562Y-76716356D01*
X126804562Y-76716356D01*
X126804562Y-76970356D01*
X126784562Y-76970356D01*
X126784562Y-78329573D01*
X127016588Y-78450714D01*
X127032353Y-78448065D01*
X127559598Y-78194088D01*
X127800087Y-77924923D01*
X128002127Y-78227298D01*
X128550597Y-78593774D01*
X129197562Y-78722463D01*
X129844527Y-78593774D01*
X130392997Y-78227298D01*
X130467562Y-78115704D01*
X130542127Y-78227298D01*
X131090597Y-78593774D01*
X131737562Y-78722463D01*
X132384527Y-78593774D01*
X132932997Y-78227298D01*
X133007562Y-78115704D01*
X133082127Y-78227298D01*
X133630597Y-78593774D01*
X134277562Y-78722463D01*
X134924527Y-78593774D01*
X135472997Y-78227298D01*
X135547562Y-78115704D01*
X135622127Y-78227298D01*
X136170597Y-78593774D01*
X136817562Y-78722463D01*
X137464527Y-78593774D01*
X138012997Y-78227298D01*
X138087562Y-78115704D01*
X138118970Y-78162708D01*
X128100678Y-88181000D01*
X117541702Y-88181000D01*
X117286567Y-88010525D01*
X117555732Y-87770036D01*
X117809709Y-87242791D01*
X117812358Y-87227026D01*
X117691217Y-86995000D01*
X116332000Y-86995000D01*
X116332000Y-87015000D01*
X116078000Y-87015000D01*
X116078000Y-86995000D01*
X114718783Y-86995000D01*
X114597642Y-87227026D01*
X114600291Y-87242791D01*
X114854268Y-87770036D01*
X115123433Y-88010525D01*
X114821058Y-88212565D01*
X114454582Y-88761035D01*
X114325893Y-89408000D01*
X111392000Y-89408000D01*
X111392000Y-64652163D01*
X129964443Y-64652163D01*
X130063042Y-64918965D01*
X130672582Y-65145401D01*
X131322377Y-65121341D01*
X131810958Y-64918965D01*
X131909557Y-64652163D01*
X130937000Y-63679605D01*
X129964443Y-64652163D01*
X111392000Y-64652163D01*
X111392000Y-63235582D01*
X129291599Y-63235582D01*
X129315659Y-63885377D01*
X129518035Y-64373958D01*
X129784837Y-64472557D01*
X130757395Y-63500000D01*
X131116605Y-63500000D01*
X132089163Y-64472557D01*
X132355965Y-64373958D01*
X132582401Y-63764418D01*
X132558341Y-63114623D01*
X132355965Y-62626042D01*
X132089163Y-62527443D01*
X131116605Y-63500000D01*
X130757395Y-63500000D01*
X129784837Y-62527443D01*
X129518035Y-62626042D01*
X129291599Y-63235582D01*
X111392000Y-63235582D01*
X111392000Y-62347837D01*
X129964443Y-62347837D01*
X130937000Y-63320395D01*
X131909557Y-62347837D01*
X131810958Y-62081035D01*
X131201418Y-61854599D01*
X130551623Y-61878659D01*
X130063042Y-62081035D01*
X129964443Y-62347837D01*
X111392000Y-62347837D01*
X111392000Y-50082546D01*
X112212424Y-50082546D01*
X112212424Y-50923106D01*
X112309097Y-51156495D01*
X112487726Y-51335123D01*
X112721115Y-51431796D01*
X113561674Y-51431796D01*
X113720424Y-51273046D01*
X113720424Y-49923796D01*
X112371174Y-49923796D01*
X112212424Y-50082546D01*
X111392000Y-50082546D01*
X111392000Y-48670486D01*
X112212424Y-48670486D01*
X112212424Y-49511046D01*
X112371174Y-49669796D01*
X113720424Y-49669796D01*
X113720424Y-48320546D01*
X113974424Y-48320546D01*
X113974424Y-49669796D01*
X113994424Y-49669796D01*
X113994424Y-49923796D01*
X113974424Y-49923796D01*
X113974424Y-51273046D01*
X114133174Y-51431796D01*
X114973733Y-51431796D01*
X115207122Y-51335123D01*
X115295824Y-51246422D01*
X115652468Y-51484724D01*
X116351631Y-51623796D01*
X116423217Y-51623796D01*
X117122380Y-51484724D01*
X117715101Y-51088680D01*
X117758455Y-51023796D01*
X118113632Y-51023796D01*
X118526923Y-51299948D01*
X119149549Y-51423796D01*
X119213299Y-51423796D01*
X119835925Y-51299948D01*
X120363762Y-50947259D01*
X120716451Y-50419422D01*
X120840299Y-49796796D01*
X120716451Y-49174170D01*
X120363762Y-48646333D01*
X119835925Y-48293644D01*
X119213299Y-48169796D01*
X119149549Y-48169796D01*
X118526923Y-48293644D01*
X118113632Y-48569796D01*
X117758455Y-48569796D01*
X117715101Y-48504912D01*
X117122380Y-48108868D01*
X116423217Y-47969796D01*
X116351631Y-47969796D01*
X115652468Y-48108868D01*
X115295824Y-48347170D01*
X115207122Y-48258469D01*
X114973733Y-48161796D01*
X114133174Y-48161796D01*
X113974424Y-48320546D01*
X113720424Y-48320546D01*
X113561674Y-48161796D01*
X112721115Y-48161796D01*
X112487726Y-48258469D01*
X112309097Y-48437097D01*
X112212424Y-48670486D01*
X111392000Y-48670486D01*
X111392000Y-45987000D01*
X195453000Y-45987000D01*
X195453000Y-101473000D01*
M02*
